<!-- Generated by IcoMoon.io -->
<svg version="1.1" xmlns="http://www.w3.org/2000/svg" width="31" height="32" viewBox="0 0 31 32">
<title>ac</title>
<path d="M15.082 5.139c-1.31 0-2.58 0.466-3.593 1.318s-1.707 2.037-1.965 3.355l-0.101 0.523c-0.027 0.117-0.031 0.238-0.011 0.357s0.063 0.232 0.126 0.333c0.063 0.101 0.146 0.188 0.243 0.256s0.206 0.115 0.321 0.138c0.115 0.024 0.233 0.023 0.348-0.001s0.223-0.072 0.32-0.14c0.096-0.068 0.178-0.156 0.241-0.257s0.105-0.215 0.124-0.333l0.103-0.521c0.193-0.977 0.733-1.845 1.516-2.437s1.75-0.865 2.717-0.766c0.967 0.098 1.864 0.562 2.517 1.3s1.016 1.698 1.019 2.695c0 1.068-0.414 2.093-1.15 2.849s-1.735 1.181-2.777 1.181h-12.655c-0.231 0-0.453 0.094-0.617 0.262s-0.256 0.396-0.256 0.633c0 0.237 0.092 0.465 0.256 0.633s0.386 0.262 0.617 0.262h12.655c1.48-0.037 2.887-0.666 3.922-1.753s1.613-2.545 1.614-4.063c0-1.519-0.578-2.977-1.611-4.064s-2.441-1.717-3.921-1.755zM25.115 13.195c-1.157 0-2.267 0.472-3.086 1.311s-1.278 1.978-1.278 3.165c0 0.237 0.092 0.465 0.256 0.633s0.386 0.262 0.617 0.262c0.231 0 0.453-0.094 0.617-0.262s0.256-0.396 0.256-0.633c0-0.531 0.154-1.050 0.441-1.492s0.697-0.786 1.175-0.989c0.478-0.203 1.005-0.256 1.513-0.153s0.974 0.359 1.341 0.735c0.366 0.376 0.615 0.854 0.716 1.375s0.049 1.061-0.149 1.552c-0.198 0.491-0.534 0.91-0.964 1.205s-0.937 0.453-1.455 0.453h-22.691c-0.231 0-0.453 0.094-0.617 0.262s-0.256 0.396-0.256 0.633c0 0.237 0.092 0.465 0.256 0.633s0.386 0.262 0.617 0.262h17.018c0.579 0.001 1.133 0.238 1.542 0.659s0.637 0.99 0.636 1.584c-0.001 0.593-0.232 1.162-0.642 1.581s-0.965 0.653-1.544 0.652c-0.521 0-1.026-0.189-1.424-0.533s-0.665-0.823-0.752-1.35l-0.009-0.054c-0.016-0.119-0.055-0.233-0.114-0.336s-0.139-0.193-0.233-0.264c-0.094-0.071-0.201-0.122-0.315-0.15s-0.232-0.032-0.347-0.012c-0.115 0.020-0.225 0.063-0.324 0.127s-0.184 0.148-0.25 0.247c-0.067 0.099-0.113 0.21-0.137 0.327s-0.024 0.238-0.002 0.356l0.009 0.054c0.155 0.945 0.632 1.803 1.345 2.422s1.618 0.958 2.552 0.958c1.043 0 2.043-0.423 2.781-1.179s1.154-1.78 1.155-2.849c0-0.829-0.244-1.599-0.662-2.238h2.407c1.157 0 2.267-0.472 3.086-1.311s1.278-1.978 1.278-3.165-0.46-2.325-1.278-3.165c-0.818-0.839-1.928-1.311-3.086-1.311z"></path>
<path d="M20.463 9.623c0.099 0.432 0.151 0.878 0.151 1.329 0 0.001 0 0.003 0 0.004s0 0.002 0 0.004c-0 0.247-0.015 0.493-0.046 0.735-0.048 0.388-0.135 0.769-0.257 1.137-0.146 0.44-0.343 0.861-0.587 1.254-0.037 0.059-0.075 0.118-0.114 0.176-0.167 0.249-0.354 0.486-0.56 0.707-0.017 0.018-0.033 0.036-0.050 0.054-0.020 0.021-0.040 0.042-0.060 0.062-0.147 0.15-0.301 0.291-0.462 0.422-0.109 0.089-0.221 0.174-0.335 0.254-0.098 0.068-0.197 0.134-0.299 0.196-0.581 0.355-1.221 0.602-1.889 0.726-0.287 0.054-0.581 0.085-0.876 0.092 0 0-0 0 0 0h-12.655c-0.231 0-0.453-0.094-0.617-0.262s-0.256-0.396-0.256-0.633c0-0.108 0.019-0.215 0.056-0.314 0.043-0.118 0.111-0.227 0.2-0.319 0.164-0.168 0.386-0.262 0.617-0.262h12.655c0.441-0 0.874-0.076 1.283-0.222 0.529-0.188 1.016-0.49 1.428-0.893 0.022-0.022 0.044-0.044 0.066-0.066 0.605-0.621 0.993-1.424 1.111-2.284 0.026-0.185 0.039-0.373 0.039-0.562 0-0.001 0-0.002 0-0.003-0-0.086-0.003-0.171-0.009-0.256-0.058-0.904-0.413-1.764-1.010-2.439-0.064-0.073-0.131-0.143-0.2-0.21-0.631-0.616-1.445-1.001-2.317-1.089-0.129-0.013-0.259-0.020-0.387-0.020-0.016 0-0.031 0-0.047 0-0.747 0.009-1.478 0.237-2.105 0.659-0.060 0.041-0.12 0.083-0.178 0.127-0.040 0.030-0.079 0.061-0.117 0.092-0.656 0.537-1.127 1.276-1.344 2.107-0.018 0.070-0.035 0.14-0.049 0.211-0.001 0.002-0.001 0.005-0.001 0.007-0 0.001-0 0.002-0.001 0.003-0.001 0.006-0.002 0.012-0.004 0.018l-0.103 0.521c-0.002 0.014-0.005 0.027-0.008 0.041-0.022 0.104-0.061 0.203-0.116 0.292-0.063 0.102-0.145 0.189-0.241 0.257s-0.205 0.116-0.32 0.14c-0.115 0.024-0.233 0.025-0.348 0.001s-0.224-0.071-0.321-0.138c-0.097-0.068-0.179-0.155-0.243-0.256s-0.106-0.214-0.126-0.333c-0.016-0.093-0.017-0.189-0.003-0.282 0.003-0.021 0.007-0.042 0.011-0.062 0.001-0.004 0.002-0.008 0.003-0.012l0.101-0.523c0.015-0.075 0.030-0.149 0.048-0.222 0.074-0.314 0.173-0.62 0.295-0.915 0.275-0.663 0.669-1.269 1.163-1.787 0.061-0.064 0.123-0.126 0.187-0.188 0.088-0.084 0.178-0.165 0.271-0.243 0.061-0.052 0.124-0.102 0.187-0.151 0.98-0.756 2.175-1.167 3.405-1.167 0.191 0.005 0.381 0.020 0.569 0.044 1.268 0.164 2.452 0.764 3.352 1.711 0.081 0.085 0.158 0.172 0.233 0.261 0.6 0.713 1.019 1.56 1.227 2.468zM22.782 13.889c0.202-0.131 0.414-0.245 0.634-0.34 0.021-0.009 0.043-0.018 0.064-0.027 0.515-0.213 1.069-0.326 1.635-0.326 0.038 0 0.076 0.001 0.113 0.001 0.255 0.007 0.508 0.037 0.755 0.088 0.834 0.174 1.607 0.595 2.217 1.221 0.010 0.011 0.021 0.021 0.031 0.032 0.602 0.63 1.004 1.422 1.166 2.276 0.053 0.28 0.081 0.567 0.081 0.857 0 0.583-0.111 1.154-0.32 1.684-0.217 0.549-0.541 1.054-0.958 1.481-0.165 0.169-0.342 0.324-0.529 0.462-0.032 0.024-0.065 0.048-0.098 0.071-0.455 0.318-0.965 0.545-1.502 0.669-0.281 0.065-0.569 0.101-0.86 0.108-0.032 0.001-0.064 0.001-0.096 0.001h-2.407c0.209 0.319 0.374 0.672 0.487 1.047s0.174 0.776 0.174 1.19c0 0.003 0 0.005 0 0.008-0.001 0.275-0.029 0.547-0.084 0.813-0.103 0.504-0.299 0.983-0.578 1.412-0.136 0.21-0.293 0.407-0.467 0.589-0.009 0.009-0.018 0.018-0.026 0.027-0.738 0.755-1.737 1.179-2.779 1.179-0 0-0.001 0-0.001 0s-0.002 0-0.004 0c-0.375-0-0.744-0.055-1.099-0.161-0.529-0.157-1.023-0.427-1.45-0.797-0.010-0.009-0.020-0.018-0.030-0.027-0.005-0.004-0.010-0.009-0.015-0.013-0.145-0.13-0.281-0.27-0.405-0.419-0.166-0.199-0.313-0.415-0.439-0.642-0.118-0.215-0.217-0.441-0.296-0.675-0.047-0.14-0.087-0.284-0.119-0.43-0.003-0.015-0.006-0.029-0.009-0.044-0.012-0.057-0.023-0.115-0.032-0.172l-0.009-0.054c-0.001-0.005-0.002-0.009-0.003-0.014-0.003-0.017-0.006-0.034-0.008-0.051-0.012-0.097-0.008-0.195 0.012-0.291 0.024-0.117 0.070-0.228 0.137-0.327s0.152-0.182 0.25-0.247c0.099-0.064 0.209-0.107 0.324-0.127s0.233-0.015 0.347 0.012c0.074 0.018 0.145 0.046 0.211 0.083 0.036 0.020 0.071 0.042 0.104 0.067 0.094 0.071 0.173 0.161 0.233 0.264 0.006 0.010 0.012 0.021 0.017 0.031 0.044 0.084 0.075 0.174 0.091 0.268 0.002 0.012 0.004 0.024 0.006 0.037l0.009 0.054c0.001 0.004 0.001 0.007 0.002 0.011 0 0.001 0 0.002 0 0.003 0.013 0.079 0.031 0.156 0.052 0.232 0.021 0.075 0.046 0.148 0.074 0.22 0.052 0.133 0.117 0.261 0.193 0.382 0.067 0.107 0.144 0.209 0.229 0.303 0.063 0.070 0.13 0.137 0.202 0.199 0.011 0.009 0.021 0.018 0.032 0.027 0.297 0.247 0.651 0.41 1.024 0.474 0.121 0.021 0.244 0.031 0.367 0.031 0 0 0 0 0 0s0.001 0 0.001 0c-0 0 0 0 0 0 0.003 0 0.005 0 0.008 0 0.171-0 0.34-0.021 0.503-0.061 0.375-0.092 0.722-0.285 1.004-0.563 0.009-0.009 0.019-0.019 0.028-0.028 0.215-0.22 0.381-0.481 0.49-0.765 0.099-0.257 0.151-0.534 0.152-0.816 0-0.002 0-0.003 0-0.004s0-0.002 0-0.003c-0-0.091-0.006-0.182-0.017-0.271-0.003-0.025-0.006-0.051-0.010-0.076-0.001-0.005-0.001-0.009-0.002-0.014-0.002-0.013-0.004-0.026-0.007-0.039-0.035-0.198-0.097-0.39-0.182-0.57-0.049-0.104-0.106-0.204-0.171-0.3-0.073-0.108-0.156-0.211-0.248-0.305-0.024-0.024-0.047-0.048-0.072-0.071-0.132-0.124-0.278-0.231-0.434-0.317-0.315-0.175-0.671-0.27-1.036-0.271 0 0-0 0 0 0h-17.018c-0.231 0-0.453-0.094-0.617-0.262-0.089-0.091-0.157-0.2-0.2-0.319-0.036-0.1-0.056-0.206-0.056-0.314 0-0.237 0.092-0.465 0.256-0.633s0.386-0.262 0.617-0.262h22.691c0.035 0 0.071-0.001 0.106-0.002 0.092-0.004 0.183-0.012 0.273-0.026 0.383-0.058 0.751-0.202 1.076-0.424 0.107-0.073 0.209-0.155 0.303-0.243 0.021-0.020 0.042-0.039 0.062-0.059 0.042-0.042 0.083-0.085 0.122-0.129 0.2-0.227 0.362-0.488 0.477-0.774 0.132-0.327 0.199-0.677 0.199-1.028 0-0.175-0.017-0.351-0.050-0.524-0.101-0.521-0.35-0.999-0.716-1.375-0.010-0.011-0.021-0.021-0.032-0.032-0.361-0.358-0.816-0.602-1.309-0.703-0.169-0.035-0.34-0.052-0.511-0.052-0.15 0-0.299 0.013-0.447 0.039-0.026 0.005-0.051 0.009-0.076 0.015-0.112 0.023-0.223 0.055-0.332 0.093-0.049 0.017-0.098 0.036-0.146 0.057-0.196 0.083-0.38 0.19-0.549 0.318-0.094 0.071-0.184 0.149-0.268 0.233-0.133 0.132-0.253 0.279-0.357 0.439-0.1 0.154-0.184 0.317-0.251 0.487-0.080 0.203-0.135 0.415-0.165 0.632-0.017 0.123-0.025 0.248-0.025 0.373 0 0.106-0.018 0.21-0.053 0.307-0.027 0.076-0.065 0.149-0.111 0.216-0.027 0.039-0.058 0.076-0.091 0.11-0.164 0.168-0.386 0.262-0.617 0.262s-0.453-0.094-0.617-0.262c-0.151-0.154-0.24-0.359-0.254-0.576-0.001-0.019-0.002-0.038-0.002-0.057 0-0.083 0.002-0.165 0.007-0.247 0.002-0.042 0.005-0.084 0.008-0.126 0.011-0.129 0.027-0.258 0.048-0.385 0.008-0.047 0.016-0.093 0.026-0.139 0.003-0.017 0.007-0.034 0.010-0.051 0.090-0.425 0.24-0.835 0.445-1.215 0.053-0.098 0.109-0.195 0.17-0.289 0.051-0.079 0.104-0.157 0.16-0.233 0.123-0.168 0.259-0.329 0.405-0.479 0.23-0.236 0.482-0.442 0.753-0.617z"></path>
</svg>
