<!-- Generated by IcoMoon.io -->
<svg version="1.1" xmlns="http://www.w3.org/2000/svg" width="32" height="32" viewBox="0 0 32 32">
<title>air-cond</title>
<path d="M0.964 0.964c0.654-0.654 1.54-1.021 2.465-1.021h25.143c0.924 0 1.811 0.367 2.465 1.021s1.021 1.54 1.021 2.465v11.429c0 0.924-0.367 1.811-1.021 2.465s-1.54 1.021-2.465 1.021h-25.143c-0.924 0-1.811-0.367-2.465-1.021s-1.021-1.54-1.021-2.465v-11.429c0-0.924 0.367-1.811 1.021-2.465zM3.428 2.343c-0.288 0-0.564 0.114-0.768 0.318s-0.318 0.48-0.318 0.768v11.429c0 0.288 0.114 0.564 0.318 0.768s0.48 0.318 0.768 0.318h25.143c0.288 0 0.564-0.114 0.768-0.318s0.318-0.48 0.318-0.768v-11.429c0-0.288-0.114-0.564-0.318-0.768s-0.48-0.318-0.768-0.318h-25.143z"></path>
<path d="M6.678 10.107c-0.654 0.654-1.021 1.54-1.021 2.465v4.571c0 0.663 0.537 1.2 1.2 1.2s1.2-0.537 1.2-1.2v-4.571c0-0.288 0.114-0.564 0.318-0.768s0.48-0.318 0.768-0.318h13.714c0.288 0 0.564 0.114 0.768 0.318s0.318 0.48 0.318 0.768v4.571c0 0.663 0.537 1.2 1.2 1.2s1.2-0.537 1.2-1.2v-4.571c0-0.924-0.367-1.811-1.021-2.465s-1.54-1.021-2.465-1.021h-13.714c-0.924 0-1.811 0.367-2.465 1.021zM9.143 21.657c-0.663 0-1.2 0.537-1.2 1.2v2.514c0 0.53-0.211 1.039-0.586 1.414s-0.884 0.586-1.414 0.586h-0.229c-0.663 0-1.2 0.537-1.2 1.2s0.537 1.2 1.2 1.2h0.229c1.167 0 2.286-0.464 3.111-1.289s1.289-1.944 1.289-3.111v-2.514c0-0.663-0.537-1.2-1.2-1.2zM16 21.657c-0.663 0-1.2 0.537-1.2 1.2v8c0 0.663 0.537 1.2 1.2 1.2s1.2-0.537 1.2-1.2v-8c0-0.663-0.537-1.2-1.2-1.2zM22.857 21.657c-0.663 0-1.2 0.537-1.2 1.2v2.514c0 1.167 0.464 2.286 1.289 3.111s1.944 1.289 3.111 1.289h0.229c0.663 0 1.2-0.537 1.2-1.2s-0.537-1.2-1.2-1.2h-0.229c-0.53 0-1.039-0.211-1.414-0.586s-0.586-0.884-0.586-1.414v-2.514c0-0.663-0.537-1.2-1.2-1.2z"></path>
</svg>
