<!-- Generated by IcoMoon.io -->
<svg version="1.1" xmlns="http://www.w3.org/2000/svg" width="32" height="32" viewBox="0 0 32 32">
<title>bed</title>
<path d="M8.497 4.88l0.003-0 15.003 0c0.958 0.003 1.877 0.385 2.554 1.062s1.060 1.596 1.062 2.554l0 0.003-0 5.844c0.552 0.252 1.060 0.602 1.497 1.039 0.959 0.959 1.499 2.258 1.503 3.614l0 0.003v7c0 0.619-0.502 1.12-1.12 1.12s-1.12-0.501-1.12-1.12v-6.998c-0.003-0.764-0.307-1.495-0.847-2.035s-1.271-0.844-2.035-0.847h-17.996c-0.763 0.003-1.495 0.307-2.035 0.847s-0.844 1.271-0.847 2.035v6.998c0 0.619-0.501 1.12-1.12 1.12s-1.12-0.501-1.12-1.12v-7.003c0.004-1.356 0.544-2.655 1.503-3.614 0.437-0.437 0.945-0.787 1.497-1.039v-5.847c0.003-0.958 0.385-1.877 1.062-2.554s1.596-1.060 2.554-1.062zM24.88 13.88v-5.378c-0.001-0.366-0.147-0.717-0.406-0.976s-0.61-0.405-0.976-0.406h-14.996c-0.366 0.001-0.717 0.148-0.976 0.406s-0.405 0.61-0.406 0.976v5.378h17.76z"></path>
<path d="M8.997 10.88c-0.826 0.002-1.617 0.331-2.201 0.915s-0.913 1.375-0.915 2.201v1.003c0 0.619 0.501 1.12 1.12 1.12s1.12-0.501 1.12-1.12v-0.998c0.001-0.234 0.094-0.457 0.259-0.622s0.389-0.258 0.623-0.259h4.996c0.234 0.001 0.457 0.094 0.623 0.259s0.258 0.389 0.259 0.623v0.998c0 0.619 0.501 1.12 1.12 1.12s1.12-0.501 1.12-1.12v-0.998c0.001-0.234 0.094-0.457 0.26-0.622s0.389-0.258 0.622-0.259h4.996c0.234 0.001 0.457 0.094 0.622 0.259s0.258 0.389 0.259 0.622v0.998c0 0.619 0.501 1.12 1.12 1.12s1.12-0.501 1.12-1.12l0-1-0-0.003c-0.002-0.826-0.331-1.617-0.915-2.201s-1.376-0.913-2.201-0.915h-5.006c-0.733 0.002-1.439 0.262-1.997 0.728-0.558-0.467-1.264-0.726-1.997-0.728h-5.006zM4.497 22.88c-0.693 0.002-1.358 0.278-1.848 0.769s-0.767 1.155-0.769 1.848v0.503c0 0.619 0.501 1.12 1.12 1.12s1.12-0.501 1.12-1.12v-0.498c0.001-0.101 0.041-0.198 0.113-0.27s0.168-0.112 0.27-0.113h22.996c0.101 0.001 0.198 0.041 0.27 0.113s0.112 0.168 0.112 0.27v0.498c0 0.619 0.502 1.12 1.12 1.12s1.12-0.501 1.12-1.12v-0.5l-0-0.003c-0.002-0.693-0.278-1.358-0.769-1.848s-1.155-0.767-1.848-0.769h-23.007z"></path>
</svg>
