<!-- Generated by IcoMoon.io -->
<svg version="1.1" xmlns="http://www.w3.org/2000/svg" width="32" height="32" viewBox="0 0 32 32">
<title>calendar</title>
<path d="M6.667 6.533c-0.81 0-1.467 0.657-1.467 1.467v18.667c0 0.81 0.657 1.467 1.467 1.467h18.667c0.81 0 1.467-0.657 1.467-1.467v-18.667c0-0.81-0.657-1.467-1.467-1.467h-18.667zM2.8 8c0-2.135 1.731-3.867 3.867-3.867h18.667c2.136 0 3.867 1.731 3.867 3.867v18.667c0 2.135-1.731 3.867-3.867 3.867h-18.667c-2.136 0-3.867-1.731-3.867-3.867v-18.667z"></path>
<path d="M21.333 1.467c0.663 0 1.2 0.537 1.2 1.2v5.333c0 0.663-0.537 1.2-1.2 1.2s-1.2-0.537-1.2-1.2v-5.333c0-0.663 0.537-1.2 1.2-1.2z"></path>
<path d="M10.667 1.467c0.663 0 1.2 0.537 1.2 1.2v5.333c0 0.663-0.537 1.2-1.2 1.2s-1.2-0.537-1.2-1.2v-5.333c0-0.663 0.537-1.2 1.2-1.2z"></path>
<path d="M2.8 13.333c0-0.663 0.537-1.2 1.2-1.2h24c0.663 0 1.2 0.537 1.2 1.2s-0.537 1.2-1.2 1.2h-24c-0.663 0-1.2-0.537-1.2-1.2z"></path>
</svg>
