<!-- Generated by IcoMoon.io -->
<svg version="1.1" xmlns="http://www.w3.org/2000/svg" width="32" height="32" viewBox="0 0 32 32">
<title>cd</title>
<path d="M16 5.2c-5.965 0-10.8 4.835-10.8 10.8s4.835 10.8 10.8 10.8c5.965 0 10.8-4.835 10.8-10.8s-4.835-10.8-10.8-10.8zM2.8 16c0-7.29 5.91-13.2 13.2-13.2s13.2 5.91 13.2 13.2c0 7.29-5.91 13.2-13.2 13.2s-13.2-5.91-13.2-13.2z"></path>
<path d="M16 9.867c-3.387 0-6.133 2.746-6.133 6.133 0 0.663-0.537 1.2-1.2 1.2s-1.2-0.537-1.2-1.2c0-4.713 3.821-8.533 8.533-8.533 0.663 0 1.2 0.537 1.2 1.2s-0.537 1.2-1.2 1.2z"></path>
<path d="M16 13.867c-1.178 0-2.133 0.955-2.133 2.133s0.955 2.133 2.133 2.133c1.178 0 2.133-0.955 2.133-2.133s-0.955-2.133-2.133-2.133zM11.467 16c0-2.504 2.030-4.533 4.533-4.533s4.533 2.030 4.533 4.533-2.030 4.533-4.533 4.533c-2.504 0-4.533-2.030-4.533-4.533z"></path>
</svg>
