<!-- Generated by IcoMoon.io -->
<svg version="1.1" xmlns="http://www.w3.org/2000/svg" width="32" height="32" viewBox="0 0 32 32">
<title>freezer</title>
<path d="M8.607 4.040c-0.53 0-0.96 0.43-0.96 0.96v20.387c0 0.53 0.43 0.96 0.96 0.96h14.793c0.53 0 0.96-0.43 0.96-0.96v-20.387c0-0.53-0.43-0.96-0.96-0.96h-14.793zM5.567 5c0-1.679 1.361-3.040 3.040-3.040h14.793c1.679 0 3.040 1.361 3.040 3.040v20.387c0 1.679-1.361 3.040-3.040 3.040h-14.793c-1.679 0-3.040-1.361-3.040-3.040v-20.387z"></path>
<path d="M10.313 5.487c-0.574 0-1.040 0.466-1.040 1.040v4.040c0 0.574 0.466 1.040 1.040 1.040s1.040-0.466 1.040-1.040v-4.040c0-0.574-0.466-1.040-1.040-1.040zM5.567 13.127c0 0.574 0.466 1.040 1.040 1.040h18.787c0.574 0 1.040-0.466 1.040-1.040s-0.466-1.040-1.040-1.040h-18.787c-0.574 0-1.040 0.466-1.040 1.040zM10.313 14.36c-0.574 0-1.040 0.466-1.040 1.040v4.040c0 0.574 0.466 1.040 1.040 1.040s1.040-0.466 1.040-1.040v-4.040c0-0.574-0.466-1.040-1.040-1.040zM8.427 26.347c-0.574 0-1.040 0.466-1.040 1.040v0.7c0 0 0 0 0 0-0 0.516 0.204 1.010 0.567 1.376s0.856 0.573 1.372 0.577h1.654c0.518 0 1.015-0.206 1.381-0.572s0.572-0.863 0.572-1.381v-0.7c0-0.574-0.466-1.040-1.040-1.040s-1.040 0.466-1.040 1.040v0.573h-1.387v-0.573c0-0.574-0.466-1.040-1.040-1.040zM20.1 26.347c-0.574 0-1.040 0.466-1.040 1.040v0.7c0 0.518 0.206 1.015 0.572 1.381s0.863 0.572 1.381 0.572h1.653c0.518 0 1.015-0.206 1.381-0.572s0.572-0.863 0.572-1.381v-0.7c0-0.574-0.466-1.040-1.040-1.040s-1.040 0.466-1.040 1.040v0.573h-1.4v-0.573c0-0.574-0.466-1.040-1.040-1.040z"></path>
</svg>
