<!-- Generated by IcoMoon.io -->
<svg version="1.1" xmlns="http://www.w3.org/2000/svg" width="32" height="32" viewBox="0 0 32 32">
<title>gearbox</title>
<path d="M3.933 3.933c0.725-0.725 1.709-1.133 2.734-1.133s2.009 0.407 2.734 1.133c0.725 0.725 1.133 1.709 1.133 2.734s-0.407 2.009-1.133 2.734c-0.725 0.725-1.709 1.133-2.734 1.133s-2.009-0.407-2.734-1.133c-0.725-0.725-1.133-1.709-1.133-2.734s0.407-2.009 1.133-2.734zM6.667 5.2c-0.389 0-0.762 0.155-1.037 0.43s-0.43 0.648-0.43 1.037c0 0.389 0.155 0.762 0.43 1.037s0.648 0.43 1.037 0.43c0.389 0 0.762-0.154 1.037-0.43s0.43-0.648 0.43-1.037c0-0.389-0.154-0.762-0.43-1.037s-0.648-0.43-1.037-0.43zM21.467 10.667c0-0.663 0.537-1.2 1.2-1.2h2c0.849 0 1.663 0.337 2.263 0.937s0.937 1.414 0.937 2.263c0 0.849-0.337 1.663-0.937 2.263s-1.414 0.937-2.263 0.937h-0.8v1.467c0 0.663-0.537 1.2-1.2 1.2s-1.2-0.537-1.2-1.2v-6.667zM23.867 13.467h0.8c0.212 0 0.416-0.084 0.566-0.234s0.234-0.354 0.234-0.566-0.084-0.416-0.234-0.566c-0.15-0.15-0.353-0.234-0.566-0.234h-0.8v1.6zM21.467 22.667c0-0.663 0.537-1.2 1.2-1.2h1.333c1.025 0 2.009 0.407 2.734 1.132s1.133 1.709 1.133 2.734c0 1.026-0.407 2.009-1.133 2.734s-1.709 1.132-2.734 1.132h-1.333c-0.663 0-1.2-0.537-1.2-1.2v-5.333zM23.867 23.867v2.933h0.133c0.389 0 0.762-0.155 1.037-0.43s0.43-0.648 0.43-1.037c0-0.389-0.155-0.762-0.43-1.037s-0.648-0.43-1.037-0.43h-0.133z"></path>
<path d="M6.667 8.133c0.663 0 1.2 0.537 1.2 1.2v4c0 0.035 0.014 0.069 0.039 0.094s0.059 0.039 0.094 0.039h9.333c0.663 0 1.2 0.537 1.2 1.2s-0.537 1.2-1.2 1.2h-4.133v8.133c0 0.035 0.014 0.069 0.039 0.094s0.059 0.039 0.094 0.039h4c0.663 0 1.2 0.537 1.2 1.2s-0.537 1.2-1.2 1.2h-4c-0.672 0-1.316-0.267-1.791-0.742s-0.742-1.12-0.742-1.791v-8.133h-2.8c-0.672 0-1.316-0.267-1.791-0.742s-0.742-1.119-0.742-1.791v-4c0-0.663 0.537-1.2 1.2-1.2z"></path>
</svg>
