<!-- Generated by IcoMoon.io -->
<svg version="1.1" xmlns="http://www.w3.org/2000/svg" width="32" height="32" viewBox="0 0 32 32">
<title>heart-red</title>
<path d="M27.787 6.147c-0.681-0.681-1.49-1.222-2.379-1.591s-1.844-0.559-2.807-0.559-1.917 0.19-2.807 0.559c-0.89 0.369-1.699 0.909-2.38 1.591l-1.413 1.413-1.413-1.413c-1.376-1.376-3.241-2.148-5.187-2.148s-3.811 0.773-5.187 2.148c-1.376 1.376-2.148 3.241-2.148 5.187s0.773 3.811 2.148 5.187l11.787 11.787 11.787-11.787c0.681-0.681 1.222-1.49 1.591-2.38s0.559-1.844 0.559-2.807-0.19-1.917-0.559-2.807c-0.369-0.89-0.909-1.699-1.591-2.38z"></path>
<path d="M19.206 3.14c1.076-0.446 2.229-0.675 3.394-0.675s2.318 0.229 3.394 0.675c1.076 0.446 2.053 1.099 2.877 1.923s1.477 1.801 1.923 2.877 0.675 2.229 0.675 3.394c0 1.165-0.229 2.318-0.675 3.394s-1.099 2.053-1.923 2.877c0 0 0-0 0 0l-11.787 11.787c-0.287 0.287-0.677 0.449-1.084 0.449s-0.797-0.162-1.084-0.449l-11.787-11.787c-1.663-1.663-2.598-3.919-2.598-6.271s0.934-4.608 2.598-6.271 3.919-2.598 6.271-2.598c2.352 0 4.608 0.934 6.271 2.598l0.329 0.329 0.329-0.329c0-0-0 0 0 0 0.823-0.824 1.801-1.477 2.877-1.923zM22.6 5.531c-0.762 0-1.516 0.15-2.22 0.442s-1.343 0.719-1.882 1.258l-1.414 1.414c-0.599 0.599-1.57 0.599-2.168 0l-1.413-1.413c-1.088-1.088-2.564-1.699-4.102-1.699s-3.014 0.611-4.102 1.699c-1.088 1.088-1.699 2.564-1.699 4.102s0.611 3.014 1.699 4.102l10.702 10.703 10.702-10.703c0.539-0.539 0.967-1.178 1.258-1.882s0.442-1.458 0.442-2.22-0.15-1.516-0.442-2.22c-0.292-0.704-0.719-1.343-1.258-1.882s-1.179-0.967-1.883-1.258-1.458-0.442-2.22-0.442z"></path>
</svg>
