<!-- Generated by IcoMoon.io -->
<svg version="1.1" xmlns="http://www.w3.org/2000/svg" width="32" height="32" viewBox="0 0 32 32">
<title>hob</title>
<path d="M4 7.867c-0.035 0-0.069 0.014-0.094 0.039s-0.039 0.059-0.039 0.094v17.333c0 0.035 0.014 0.069 0.039 0.094s0.059 0.039 0.094 0.039h6.8v-17.6h-6.8zM13.2 7.867v17.6h14.8c0.035 0 0.069-0.014 0.094-0.039s0.039-0.059 0.039-0.094v-17.333c0-0.035-0.014-0.069-0.039-0.094s-0.059-0.039-0.094-0.039h-14.8zM2.209 6.209c0.475-0.475 1.119-0.742 1.791-0.742h24c0.672 0 1.316 0.267 1.791 0.742s0.742 1.119 0.742 1.791v17.333c0 0.672-0.267 1.316-0.742 1.791s-1.119 0.742-1.791 0.742h-24c-0.672 0-1.316-0.267-1.791-0.742s-0.742-1.119-0.742-1.791v-17.333c0-0.672 0.267-1.316 0.742-1.791z"></path>
<path d="M25.359 9.686c-0.541-0.382-1.29-0.253-1.672 0.288l-8 11.333c-0.382 0.541-0.253 1.29 0.288 1.672s1.29 0.253 1.672-0.288l8-11.333c0.382-0.541 0.253-1.29-0.288-1.672zM7.333 10.133c-0.663 0-1.2 0.537-1.2 1.2v2.667c0 0.663 0.537 1.2 1.2 1.2s1.2-0.537 1.2-1.2v-2.667c0-0.663-0.537-1.2-1.2-1.2z"></path>
<path d="M8.667 18c0-0.736-0.597-1.333-1.333-1.333s-1.333 0.597-1.333 1.333c0 0.736 0.597 1.333 1.333 1.333s1.333-0.597 1.333-1.333z"></path>
<path d="M8.667 22c0-0.736-0.597-1.333-1.333-1.333s-1.333 0.597-1.333 1.333c0 0.736 0.597 1.333 1.333 1.333s1.333-0.597 1.333-1.333z"></path>
</svg>
