<!-- Generated by IcoMoon.io -->
<svg version="1.1" xmlns="http://www.w3.org/2000/svg" width="32" height="32" viewBox="0 0 32 32">
<title>kitchen</title>
<path d="M25.806 2.897c0.441 0.189 0.728 0.623 0.728 1.103v24c0 0.663-0.537 1.2-1.2 1.2h-1.333c-0.663 0-1.2-0.537-1.2-1.2v-4c0-0.663 0.537-1.2 1.2-1.2 0.045 0 0.090 0.003 0.133 0.007v-1.607h-5.467c-0.66 0-1.196-0.533-1.2-1.192-0.016-2.47 0.041-5.108 0.975-7.928 0.94-2.838 2.736-5.773 6.064-8.948 0.348-0.331 0.859-0.424 1.301-0.235zM24.133 18.8v-11.798c-1.788 2.099-2.815 4.024-3.414 5.832-0.67 2.023-0.827 3.962-0.851 5.966h4.265zM6.667 4.133c-0.663 0-1.2 0.537-1.2 1.2v4c0 1.379 0.548 2.702 1.523 3.677 0.687 0.687 1.547 1.162 2.477 1.383v13.607c0 0.663 0.537 1.2 1.2 1.2s1.2-0.537 1.2-1.2v-13.607c0.93-0.221 1.79-0.696 2.477-1.383 0.975-0.975 1.523-2.298 1.523-3.677v-4c0-0.663-0.537-1.2-1.2-1.2s-1.2 0.537-1.2 1.2v4c0 0.743-0.295 1.455-0.82 1.98-0.229 0.229-0.493 0.414-0.78 0.55v-6.53c0-0.663-0.537-1.2-1.2-1.2s-1.2 0.537-1.2 1.2v6.53c-0.287-0.136-0.551-0.321-0.78-0.55-0.525-0.525-0.82-1.237-0.82-1.98v-4c0-0.663-0.537-1.2-1.2-1.2z"></path>
</svg>
