<!-- Generated by IcoMoon.io -->
<svg version="1.1" xmlns="http://www.w3.org/2000/svg" width="29" height="32" viewBox="0 0 29 32">
<title>map-pin</title>
<path d="M14.4 2.533c-2.864 0-5.611 1.138-7.637 3.163s-3.163 4.772-3.163 7.637c0 4.184 2.719 8.225 5.671 11.341 1.452 1.532 2.907 2.786 4.001 3.657 0.446 0.355 0.83 0.645 1.127 0.864 0.297-0.218 0.682-0.508 1.127-0.864 1.094-0.871 2.55-2.125 4.001-3.657 2.952-3.116 5.671-7.157 5.671-11.341 0-2.864-1.138-5.611-3.163-7.637s-4.772-3.163-7.637-3.163zM14.4 30.667c-0.666 0.998-0.666 0.998-0.666 0.998l-0.001-0.001-0.003-0.002-0.009-0.006-0.030-0.020c-0.026-0.017-0.062-0.043-0.109-0.075-0.094-0.065-0.229-0.16-0.4-0.284-0.342-0.247-0.825-0.607-1.404-1.068-1.156-0.92-2.7-2.25-4.249-3.884-3.048-3.217-6.329-7.843-6.329-12.992 0-3.501 1.391-6.858 3.866-9.334s5.833-3.866 9.334-3.866c3.501 0 6.858 1.391 9.334 3.866s3.866 5.833 3.866 9.334c0 5.149-3.281 9.775-6.329 12.992-1.548 1.634-3.093 2.964-4.249 3.884-0.579 0.461-1.063 0.821-1.404 1.068-0.171 0.123-0.306 0.218-0.4 0.284-0.047 0.032-0.084 0.058-0.109 0.075l-0.030 0.020-0.009 0.006-0.003 0.002-0.001 0.001c-0 0-0.001 0-0.666-0.998zM14.4 30.667l-0.666 0.998c0.403 0.269 0.928 0.269 1.331 0l-0.666-0.998z"></path>
<path d="M14.4 10.533c-1.546 0-2.8 1.254-2.8 2.8s1.254 2.8 2.8 2.8c1.546 0 2.8-1.254 2.8-2.8s-1.254-2.8-2.8-2.8zM9.2 13.333c0-2.872 2.328-5.2 5.2-5.2s5.2 2.328 5.2 5.2c0 2.872-2.328 5.2-5.2 5.2s-5.2-2.328-5.2-5.2z"></path>
</svg>
