<!-- Generated by IcoMoon.io -->
<svg version="1.1" xmlns="http://www.w3.org/2000/svg" width="32" height="32" viewBox="0 0 32 32">
<title>microwave</title>
<path d="M0.686 5.257c0.424-0.424 1-0.663 1.6-0.663h27.429c0.6 0 1.176 0.238 1.6 0.663s0.663 1 0.663 1.6v18.286c0 0.6-0.238 1.176-0.663 1.6s-1 0.663-1.6 0.663h-27.429c-0.6 0-1.176-0.238-1.6-0.663s-0.663-1-0.663-1.6v-18.286c0-0.6 0.238-1.176 0.663-1.6zM2.286 6.834c-0.006 0-0.012 0.002-0.016 0.007s-0.007 0.010-0.007 0.016v18.286c0 0.006 0.002 0.012 0.007 0.016s0.010 0.007 0.016 0.007h27.429c0.006 0 0.012-0.002 0.016-0.007s0.007-0.010 0.007-0.016v-18.286c0-0.006-0.002-0.012-0.007-0.016s-0.010-0.007-0.016-0.007h-27.429z"></path>
<path d="M5.257 9.828c0.424-0.424 1-0.663 1.6-0.663h12.571c0.6 0 1.176 0.238 1.6 0.663s0.663 1 0.663 1.6v9.143c0 0.6-0.238 1.176-0.663 1.6s-1 0.663-1.6 0.663h-12.571c-0.6 0-1.176-0.238-1.6-0.663s-0.663-1-0.663-1.6v-9.143c0-0.6 0.238-1.176 0.663-1.6zM6.857 11.406c-0.006 0-0.012 0.002-0.016 0.007s-0.007 0.010-0.007 0.016v9.143c0 0.006 0.002 0.012 0.007 0.016s0.010 0.007 0.016 0.007h12.571c0.006 0 0.012-0.002 0.016-0.007s0.007-0.010 0.007-0.016v-9.143c0-0.006-0.002-0.012-0.007-0.016s-0.010-0.007-0.016-0.007h-12.571zM24.023 11.428c0 0.619 0.501 1.12 1.12 1.12h1.143c0.619 0 1.12-0.501 1.12-1.12s-0.501-1.12-1.12-1.12h-1.143c-0.619 0-1.12 0.501-1.12 1.12zM24.023 16c0 0.618 0.501 1.12 1.12 1.12h1.143c0.619 0 1.12-0.501 1.12-1.12s-0.501-1.12-1.12-1.12h-1.143c-0.619 0-1.12 0.501-1.12 1.12z"></path>
</svg>
