<!-- Generated by IcoMoon.io -->
<svg version="1.1" xmlns="http://www.w3.org/2000/svg" width="32" height="32" viewBox="0 0 32 32">
<title>radio</title>
<path d="M7.62 9.226c-1.337 0.18-2.1 0.516-2.655 1.072s-0.893 1.319-1.072 2.656c-0.184 1.367-0.186 3.17-0.186 5.713s0.002 4.347 0.186 5.713c0.18 1.337 0.516 2.1 1.072 2.655s1.319 0.892 2.656 1.072c1.367 0.184 3.17 0.186 5.713 0.186h5.333c2.544 0 4.347-0.002 5.713-0.186 1.337-0.18 2.1-0.516 2.655-1.072s0.892-1.319 1.072-2.656c0.184-1.367 0.186-3.17 0.186-5.713s-0.002-4.346-0.186-5.713c-0.18-1.337-0.516-2.1-1.072-2.655s-1.319-0.893-2.656-1.072c-1.367-0.184-3.17-0.186-5.713-0.186h-5.333c-2.543 0-4.346 0.002-5.713 0.186zM13.255 6.96h5.489c2.448-0 4.391-0 5.913 0.205 1.568 0.211 2.843 0.656 3.849 1.663s1.452 2.281 1.662 3.848c0.205 1.522 0.205 3.465 0.205 5.913v0.156c0 2.448 0 4.391-0.205 5.913-0.211 1.568-0.656 2.843-1.663 3.849s-2.281 1.452-3.849 1.663c-1.522 0.205-3.465 0.205-5.913 0.205h-5.489c-2.448 0-4.391 0-5.913-0.205-1.567-0.211-2.842-0.656-3.848-1.662s-1.452-2.281-1.663-3.849c-0.205-1.522-0.205-3.465-0.205-5.913v-0.156c-0-2.448-0-4.391 0.205-5.913 0.211-1.567 0.656-2.843 1.663-3.849s2.281-1.452 3.849-1.663c1.522-0.205 3.465-0.205 5.913-0.205z"></path>
<path d="M9.333 13.040c-0.431 0-0.845 0.171-1.15 0.476s-0.476 0.719-0.476 1.15c0 0.431 0.171 0.845 0.476 1.15s0.719 0.476 1.15 0.476h13.333c0.432 0 0.845-0.171 1.15-0.476s0.476-0.719 0.476-1.15-0.171-0.845-0.476-1.15c-0.305-0.305-0.719-0.476-1.15-0.476h-13.333zM6.712 12.046c0.695-0.695 1.638-1.086 2.621-1.086h13.333c0.983 0 1.926 0.39 2.621 1.086s1.086 1.638 1.086 2.621-0.391 1.926-1.086 2.621c-0.695 0.695-1.638 1.086-2.621 1.086h-13.333c-0.983 0-1.926-0.391-2.621-1.086s-1.086-1.638-1.086-2.621 0.391-1.926 1.086-2.621zM10 21.707c-0.255 0-0.499 0.101-0.679 0.281s-0.281 0.424-0.281 0.679 0.101 0.499 0.281 0.679c0.18 0.18 0.424 0.281 0.679 0.281s0.499-0.101 0.679-0.281c0.18-0.18 0.281-0.424 0.281-0.679s-0.101-0.499-0.281-0.679c-0.18-0.18-0.424-0.281-0.679-0.281zM7.85 20.517c0.57-0.57 1.343-0.89 2.15-0.89s1.579 0.32 2.15 0.89c0.57 0.57 0.89 1.343 0.89 2.15s-0.32 1.58-0.89 2.15c-0.57 0.57-1.343 0.89-2.15 0.89s-1.579-0.32-2.15-0.89c-0.57-0.57-0.89-1.343-0.89-2.15s0.32-1.58 0.89-2.15z"></path>
<path d="M20.941 2.224c-0.244-0.52-0.864-0.743-1.384-0.498l-11.333 5.333c-0.52 0.245-0.743 0.864-0.498 1.384s0.864 0.743 1.384 0.498l11.333-5.333c0.52-0.245 0.743-0.864 0.498-1.384zM20 14.293c-0.574 0-1.040 0.466-1.040 1.040v2c0 0.574 0.466 1.040 1.040 1.040s1.040-0.466 1.040-1.040v-2c0-0.574-0.466-1.040-1.040-1.040zM16.293 22.667c0 0.574 0.466 1.040 1.040 1.040h6.667c0.574 0 1.040-0.466 1.040-1.040s-0.466-1.040-1.040-1.040h-6.667c-0.574 0-1.040 0.466-1.040 1.040z"></path>
</svg>
