<!-- Generated by IcoMoon.io -->
<svg version="1.1" xmlns="http://www.w3.org/2000/svg" width="32" height="32" viewBox="0 0 32 32">
<title>shower</title>
<path d="M4.626 4.626c0.391-0.391 1.024-0.391 1.414 0l2.72 2.72c1.309-1.002 2.916-1.557 4.582-1.565 1.669-0.008 3.285 0.533 4.605 1.525l1.346-1.346c0.39-0.391 1.024-0.391 1.414 0s0.391 1.024 0 1.414l-1.999 1.999c-0.001 0.001-0.002 0.002-0.002 0.002l-9.331 9.331c-0.001 0.001-0.002 0.002-0.002 0.002l-1.999 1.999c-0.391 0.39-1.024 0.39-1.414 0s-0.391-1.024 0-1.414l1.346-1.346c-0.992-1.32-1.533-2.936-1.525-4.605 0.008-1.666 0.564-3.273 1.566-4.582l-2.72-2.72c-0.391-0.391-0.391-1.024 0-1.414zM8.739 16.514l7.775-7.775c-0.927-0.626-2.027-0.964-3.161-0.958-1.475 0.007-2.888 0.597-3.931 1.64s-1.633 2.456-1.64 3.932c-0.006 1.134 0.333 2.234 0.958 3.161zM21.333 12.333c-0.552 0-1 0.448-1 1v0.013c0 0.552 0.448 1 1 1s1-0.448 1-1v-0.013c0-0.552-0.448-1-1-1zM26.667 13.667c-0.552 0-1 0.448-1 1v0.013c0 0.552 0.448 1 1 1s1-0.448 1-1v-0.013c0-0.552-0.448-1-1-1zM17.333 16.333c-0.552 0-1 0.448-1 1v0.013c0 0.552 0.448 1 1 1s1-0.448 1-1v-0.013c0-0.552-0.448-1-1-1zM22.667 17.667c-0.552 0-1 0.448-1 1v0.013c0 0.552 0.448 1 1 1s1-0.448 1-1v-0.013c0-0.552-0.448-1-1-1zM13.333 20.333c-0.552 0-1 0.448-1 1v0.013c0 0.552 0.448 1 1 1s1-0.448 1-1v-0.013c0-0.552-0.448-1-1-1zM18.667 21.667c-0.552 0-1 0.448-1 1v0.013c0 0.552 0.448 1 1 1s1-0.448 1-1v-0.013c0-0.552-0.448-1-1-1zM14.667 25.667c-0.552 0-1 0.448-1 1v0.013c0 0.552 0.448 1 1 1s1-0.448 1-1v-0.013c0-0.552-0.448-1-1-1z"></path>
</svg>
