<!-- Generated by IcoMoon.io -->
<svg version="1.1" xmlns="http://www.w3.org/2000/svg" width="32" height="32" viewBox="0 0 32 32">
<title>tv</title>
<path d="M8 8.9c-1.719 0-3.1 1.381-3.1 3.1v10c0 1.719 1.381 3.1 3.1 3.1h16c1.719 0 3.1-1.381 3.1-3.1v-10c0-1.719-1.381-3.1-3.1-3.1h-16zM3.1 12c0-2.713 2.187-4.9 4.9-4.9h16c2.713 0 4.9 2.187 4.9 4.9v10c0 2.713-2.187 4.9-4.9 4.9h-16c-2.713 0-4.9-2.187-4.9-4.9v-10z"></path>
<path d="M11.1 30c0-0.497 0.403-0.9 0.9-0.9h8c0.497 0 0.9 0.403 0.9 0.9s-0.403 0.9-0.9 0.9h-8c-0.497 0-0.9-0.403-0.9-0.9z"></path>
<path d="M22.637 1.364c0.352 0.351 0.352 0.921 0 1.273l-6 6c-0.352 0.351-0.921 0.351-1.273 0s-0.351-0.921 0-1.273l6-6c0.352-0.351 0.921-0.351 1.273 0z"></path>
<path d="M9.364 1.364c0.351-0.351 0.921-0.351 1.273 0l6 6c0.352 0.351 0.352 0.921 0 1.273s-0.921 0.351-1.273 0l-6-6c-0.351-0.351-0.351-0.921 0-1.273z"></path>
</svg>
