<!-- Generated by IcoMoon.io -->
<svg version="1.1" xmlns="http://www.w3.org/2000/svg" width="32" height="32" viewBox="0 0 32 32">
<title>water</title>
<path d="M16 4.942c-1.061 1.268-2.882 3.567-4.504 6.21-1.845 3.006-3.296 6.242-3.296 8.848 0 2.506 0.784 4.429 2.077 5.723s3.216 2.077 5.723 2.077c2.506 0 4.429-0.784 5.723-2.077s2.077-3.216 2.077-5.723c0-2.607-1.451-5.842-3.296-8.848-1.622-2.643-3.443-4.942-4.504-6.21zM15.185 2.474c0.256-0.118 0.534-0.179 0.815-0.179s0.56 0.061 0.815 0.179 0.483 0.289 0.666 0.503l0.001 0.001c1.008 1.18 3.161 3.812 5.067 6.918 1.876 3.055 3.651 6.783 3.651 10.104 0 3.017-0.955 5.594-2.78 7.42s-4.403 2.78-7.42 2.78c-3.017 0-5.594-0.955-7.42-2.78s-2.78-4.403-2.78-7.42c0-3.32 1.775-7.049 3.651-10.104 1.907-3.106 4.059-5.739 5.068-6.919l0.001-0.001c0.183-0.214 0.41-0.385 0.666-0.503z"></path>
<path d="M21.5 19.3c0.663 0 1.2 0.537 1.2 1.2 0 1.512-0.6 2.962-1.669 4.031s-2.519 1.669-4.031 1.669c-0.663 0-1.2-0.537-1.2-1.2s0.537-1.2 1.2-1.2c0.875 0 1.715-0.348 2.333-0.967s0.967-1.458 0.967-2.333c0-0.663 0.537-1.2 1.2-1.2z"></path>
</svg>
