<svg width="32" height="33" viewBox="0 0 32 33" fill="none" xmlns="http://www.w3.org/2000/svg">
<path d="M15.5537 5.3C14.2027 5.30031 12.8935 5.7805 11.8487 6.65893C10.8038 7.53736 10.0879 8.75981 9.8225 10.1185L9.7181 10.6575C9.69035 10.7781 9.68654 10.9032 9.70692 11.0253C9.7273 11.1474 9.77143 11.2641 9.8367 11.3683C9.90197 11.4726 9.98703 11.5623 10.0868 11.6321C10.1866 11.702 10.2991 11.7505 10.4175 11.7748C10.536 11.7991 10.658 11.7986 10.7763 11.7736C10.8946 11.7485 11.0067 11.6992 11.1061 11.6287C11.2054 11.5582 11.2899 11.468 11.3545 11.3633C11.4191 11.2586 11.4625 11.1416 11.4821 11.0194L11.5883 10.4822C11.7878 9.47479 12.3447 8.57922 13.1512 7.96889C13.9576 7.35856 14.9562 7.07691 15.9536 7.17849C16.9509 7.28006 17.876 7.75764 18.5497 8.51872C19.2233 9.2798 19.5976 10.2702 19.6001 11.2982C19.6001 12.4 19.1735 13.4567 18.414 14.236C17.6545 15.0153 16.6244 15.4534 15.5501 15.4538H2.5001C2.2614 15.4538 2.03248 15.5511 1.8637 15.7242C1.69492 15.8973 1.6001 16.1321 1.6001 16.3769C1.6001 16.6217 1.69492 16.8565 1.8637 17.0296C2.03248 17.2027 2.2614 17.3 2.5001 17.3H15.5501C17.0765 17.2616 18.5278 16.6129 19.5944 15.4923C20.6609 14.3716 21.2581 12.8678 21.2586 11.3018C21.259 9.73579 20.6627 8.23161 19.5969 7.11028C18.531 5.98896 17.0801 5.33932 15.5537 5.3ZM25.9001 13.6077C24.7066 13.6077 23.562 14.094 22.7181 14.9595C21.8742 15.8251 21.4001 16.999 21.4001 18.2231C21.4001 18.4679 21.4949 18.7027 21.6637 18.8758C21.8325 19.0489 22.0614 19.1462 22.3001 19.1462C22.5388 19.1462 22.7677 19.0489 22.9365 18.8758C23.1053 18.7027 23.2001 18.4679 23.2001 18.2231C23.2001 17.6754 23.3584 17.14 23.6551 16.6846C23.9518 16.2292 24.3735 15.8742 24.8669 15.6646C25.3602 15.455 25.9031 15.4002 26.4268 15.5071C26.9506 15.6139 27.4317 15.8777 27.8093 16.2649C28.1869 16.6522 28.444 17.1456 28.5482 17.6828C28.6524 18.22 28.5989 18.7768 28.3946 19.2828C28.1902 19.7888 27.8441 20.2213 27.4001 20.5256C26.9561 20.8299 26.4341 20.9923 25.9001 20.9923H2.5001C2.2614 20.9923 2.03248 21.0896 1.8637 21.2627C1.69492 21.4358 1.6001 21.6706 1.6001 21.9154C1.6001 22.1602 1.69492 22.395 1.8637 22.5681C2.03248 22.7412 2.2614 22.8385 2.5001 22.8385H20.0501C20.6468 22.8397 21.2187 23.084 21.6398 23.5176C22.0609 23.9513 22.2968 24.5387 22.2956 25.1508C22.2944 25.7628 22.0562 26.3493 21.6334 26.7812C21.2106 27.2131 20.6378 27.4551 20.0411 27.4538C19.5036 27.4542 18.9832 27.2594 18.5724 26.9039C18.1615 26.5484 17.8867 26.0552 17.7965 25.5117L17.7875 25.4563C17.7713 25.3339 17.7313 25.216 17.6699 25.1097C17.6085 25.0034 17.5269 24.9108 17.43 24.8375C17.333 24.7641 17.2227 24.7115 17.1056 24.6826C16.9884 24.6538 16.8668 24.6494 16.748 24.6697C16.6291 24.69 16.5155 24.7345 16.4137 24.8007C16.312 24.8668 16.2242 24.9533 16.1557 25.0549C16.0871 25.1565 16.0391 25.2711 16.0145 25.3921C15.99 25.5131 15.9894 25.6379 16.0127 25.7591L16.0217 25.8145C16.1817 26.7891 16.6733 27.674 17.4091 28.3121C18.145 28.9502 19.0775 29.3002 20.0411 29.3C21.1162 29.3005 22.1475 28.8633 22.9086 28.0845C23.6696 27.3056 24.0982 26.2488 24.1001 25.1462C24.1001 24.2914 23.8481 23.4975 23.4179 22.8385H25.9001C27.0936 22.8385 28.2382 22.3522 29.0821 21.4866C29.926 20.6211 30.4001 19.4472 30.4001 18.2231C30.4001 16.999 29.926 15.8251 29.0821 14.9595C28.2382 14.094 27.0936 13.6077 25.9001 13.6077Z" fill="#101828"/>
<path fill-rule="evenodd" clip-rule="evenodd" d="M21.1027 9.92371C20.8878 8.98824 20.4557 8.11408 19.8372 7.37902C19.76 7.28722 19.6799 7.19759 19.5969 7.11028C18.6686 6.13368 17.4482 5.51487 16.1403 5.34542C15.9464 5.32032 15.7507 5.30507 15.5537 5.3C14.2848 5.30029 13.0527 5.72392 12.042 6.50325C11.9766 6.55366 11.9121 6.60556 11.8487 6.65893C11.7526 6.73965 11.6594 6.82328 11.569 6.90966C11.5031 6.9727 11.4387 7.0372 11.3758 7.10309C10.8669 7.63668 10.4606 8.26197 10.1765 8.9457C10.0502 9.24965 9.94811 9.56515 9.87183 9.88927C9.85396 9.96521 9.83751 10.0416 9.8225 10.1185L9.7181 10.6575C9.71713 10.6617 9.7162 10.6659 9.71529 10.6701C9.7107 10.6914 9.70686 10.7128 9.70375 10.7343C9.68982 10.8307 9.69084 10.9289 9.70692 11.0253C9.7273 11.1474 9.77143 11.2641 9.8367 11.3683C9.90197 11.4726 9.98703 11.5623 10.0868 11.6321C10.1866 11.702 10.2991 11.7505 10.4175 11.7748C10.536 11.7991 10.658 11.7986 10.7763 11.7736C10.8946 11.7485 11.0067 11.6992 11.1061 11.6287C11.2054 11.5582 11.2899 11.468 11.3545 11.3633C11.4116 11.2707 11.4521 11.1686 11.4743 11.0617C11.4772 11.0477 11.4798 11.0336 11.4821 11.0194L11.5883 10.4822C11.5895 10.4761 11.5907 10.4701 11.5919 10.4641C11.5921 10.4631 11.5923 10.4622 11.5925 10.4612C11.593 10.4588 11.5935 10.4563 11.594 10.4538C11.609 10.3808 11.6259 10.3083 11.6446 10.2366C11.8678 9.37998 12.3531 8.61816 13.0301 8.06418C13.0698 8.03169 13.1102 7.99992 13.1512 7.96889C13.2114 7.92333 13.2727 7.87959 13.3349 7.83772C13.9818 7.40269 14.7355 7.16779 15.5058 7.15845C15.5219 7.15826 15.538 7.15816 15.5541 7.15816C15.687 7.15818 15.8203 7.16491 15.9536 7.17849C16.8526 7.27005 17.6928 7.66711 18.3432 8.30193C18.4144 8.37138 18.4832 8.44367 18.5497 8.51872C19.1654 9.21434 19.531 10.1015 19.5913 11.0339C19.5969 11.1216 19.5999 11.2097 19.6001 11.2982C19.6001 11.2992 19.6001 11.3003 19.6001 11.3013C19.6 11.4962 19.5865 11.6897 19.5601 11.8805C19.4378 12.7671 19.0384 13.5953 18.414 14.236C18.3916 14.259 18.3689 14.2818 18.346 14.3042C17.9218 14.7195 17.4187 15.0317 16.8736 15.2253C16.4518 15.375 16.0049 15.4536 15.5501 15.4538H2.5001C2.2614 15.4538 2.03248 15.5511 1.8637 15.7242C1.77194 15.8183 1.70204 15.9307 1.65736 16.0529C1.61984 16.1556 1.6001 16.2652 1.6001 16.3769C1.6001 16.6217 1.69492 16.8565 1.8637 17.0296C2.03248 17.2027 2.2614 17.3 2.5001 17.3H15.5501C15.5498 17.3 15.5504 17.3 15.5501 17.3C15.8548 17.2923 16.1573 17.2603 16.4535 17.205C17.1429 17.0765 17.8027 16.8222 18.4019 16.4561C18.5064 16.3922 18.6091 16.3249 18.7098 16.2543C18.8279 16.1715 18.9432 16.0841 19.0554 15.9923C19.2213 15.8567 19.3805 15.7113 19.5322 15.5566C19.5531 15.5353 19.5738 15.5139 19.5944 15.4923C19.6118 15.4739 19.6291 15.4555 19.6463 15.437C19.8584 15.2084 20.0512 14.9644 20.2239 14.7077C20.2642 14.6478 20.3034 14.5871 20.3415 14.5258C20.5934 14.1204 20.7965 13.6861 20.9469 13.2326C21.0727 12.8533 21.1616 12.4605 21.2115 12.06C21.2426 11.8099 21.2585 11.5567 21.2586 11.3018C21.2586 11.3006 21.2586 11.2994 21.2586 11.2982C21.2586 11.2968 21.2586 11.2955 21.2586 11.2942C21.2581 10.8291 21.2051 10.3694 21.1027 9.92371ZM23.4941 14.3228C23.2154 14.5036 22.9549 14.7166 22.7181 14.9595C22.5667 15.1148 22.4271 15.2801 22.3001 15.4538C22.2426 15.5324 22.1877 15.6127 22.1355 15.6946C22.0735 15.7917 22.0152 15.891 21.9606 15.9923C21.7495 16.3845 21.5949 16.8068 21.5021 17.2456C21.4985 17.263 21.4949 17.2803 21.4914 17.2977C21.4819 17.3454 21.4732 17.3932 21.4651 17.4412C21.4431 17.5725 21.4266 17.705 21.4157 17.8385C21.4122 17.8816 21.4093 17.9249 21.407 17.9683C21.4024 18.0529 21.4001 18.1379 21.4001 18.2231C21.4001 18.2428 21.4007 18.2624 21.4019 18.282C21.4158 18.5053 21.5085 18.7166 21.6637 18.8758C21.8325 19.0489 22.0614 19.1462 22.3001 19.1462C22.5388 19.1462 22.7677 19.0489 22.9365 18.8758C22.971 18.8404 23.0024 18.8025 23.0305 18.7624C23.0787 18.6938 23.1172 18.6189 23.1454 18.54C23.1812 18.4394 23.2001 18.3322 23.2001 18.2231C23.2001 18.0939 23.2089 17.9654 23.2263 17.8385C23.2569 17.6146 23.3141 17.3956 23.3964 17.1864C23.4653 17.0113 23.5519 16.8431 23.6551 16.6846C23.7624 16.5199 23.886 16.3684 24.0234 16.2322C24.1104 16.1459 24.2029 16.0658 24.3003 15.9923C24.4747 15.8608 24.6647 15.7505 24.8669 15.6646C24.9165 15.6435 24.9667 15.624 25.0173 15.6061C25.1297 15.5662 25.2442 15.534 25.3601 15.5098C25.3864 15.5043 25.4127 15.4992 25.439 15.4945C25.5913 15.4675 25.7455 15.4538 25.9001 15.4538C26.0761 15.4538 26.2525 15.4715 26.4268 15.5071C26.9357 15.6109 27.4043 15.8628 27.7768 16.2322C27.7877 16.243 27.7985 16.2539 27.8093 16.2649C28.1869 16.6522 28.444 17.1456 28.5482 17.6828C28.5829 17.8616 28.6001 18.0426 28.6001 18.2231C28.6001 18.585 28.5309 18.9452 28.3946 19.2828C28.2756 19.5773 28.1087 19.847 27.9023 20.0809C27.862 20.1266 27.8201 20.171 27.7768 20.214C27.7559 20.2347 27.7346 20.2551 27.713 20.2752C27.6153 20.3661 27.5107 20.4498 27.4001 20.5256C27.0653 20.7551 26.6862 20.9038 26.2909 20.9631C26.1978 20.9771 26.1037 20.9861 26.0092 20.99C25.9729 20.9916 25.9365 20.9923 25.9001 20.9923H2.5001C2.2614 20.9923 2.03248 21.0896 1.8637 21.2627C1.69492 21.4358 1.6001 21.6706 1.6001 21.9154C1.6001 22.0271 1.61984 22.1367 1.65735 22.2394C1.70204 22.3616 1.77194 22.474 1.8637 22.5681C2.03248 22.7412 2.2614 22.8385 2.5001 22.8385H20.0501C20.0499 22.8385 20.0503 22.8385 20.0501 22.8385C20.4264 22.8393 20.7933 22.9368 21.1182 23.1175C21.2787 23.2068 21.4291 23.3164 21.5656 23.4446C21.5908 23.4683 21.6155 23.4927 21.6398 23.5176C21.7345 23.6152 21.8199 23.7206 21.8953 23.8323C21.9619 23.9308 22.0207 24.0343 22.0713 24.1417C22.159 24.3277 22.2221 24.5255 22.2587 24.7297C22.2611 24.7432 22.2634 24.7568 22.2656 24.7704C22.2664 24.7753 22.2671 24.7802 22.2679 24.7851C22.2719 24.8109 22.2755 24.8369 22.2786 24.863C22.2897 24.9554 22.2955 25.0489 22.2956 25.143C22.2956 25.1441 22.2956 25.1451 22.2956 25.1462C22.2956 25.1477 22.2956 25.1492 22.2956 25.1508C22.295 25.4417 22.2409 25.7268 22.1389 25.9923C22.0263 26.2854 21.8552 26.5546 21.6334 26.7812C21.6239 26.791 21.6142 26.8006 21.6045 26.8102C21.3138 27.0967 20.9557 27.2956 20.5693 27.3905C20.4005 27.4319 20.2264 27.4535 20.0501 27.4538C20.0474 27.4539 20.0447 27.4539 20.0419 27.4538C20.0422 27.4538 20.0417 27.4538 20.0419 27.4538C20.0418 27.4538 20.0409 27.4538 20.0407 27.4538C20.0408 27.4538 20.0407 27.4538 20.0407 27.4538C19.9132 27.4539 19.7865 27.443 19.6621 27.4215C19.2766 27.355 18.9122 27.1873 18.6057 26.9322C18.5945 26.9229 18.5834 26.9135 18.5724 26.9039C18.4984 26.8399 18.4288 26.7714 18.3639 26.6989C18.2765 26.6014 18.1977 26.4967 18.1281 26.3862C18.0498 26.2618 17.9831 26.1299 17.9291 25.9923C17.9 25.9182 17.8745 25.8424 17.8529 25.7653C17.8309 25.6868 17.8128 25.6068 17.7989 25.5257C17.7987 25.5247 17.7985 25.5237 17.7984 25.5227C17.7977 25.519 17.7971 25.5154 17.7965 25.5117L17.7875 25.4563C17.7858 25.4437 17.7839 25.431 17.7817 25.4185C17.7649 25.3217 17.7332 25.2283 17.6876 25.1418C17.6819 25.131 17.676 25.1203 17.6699 25.1097C17.6085 25.0034 17.5269 24.9108 17.43 24.8375C17.3959 24.8117 17.3601 24.7884 17.323 24.7679C17.2546 24.73 17.1815 24.7013 17.1056 24.6826C16.9884 24.6538 16.8668 24.6494 16.748 24.6697C16.6291 24.69 16.5155 24.7345 16.4137 24.8007C16.312 24.8668 16.2242 24.9533 16.1557 25.0549C16.0871 25.1565 16.0391 25.2711 16.0145 25.3921C15.9945 25.4909 15.9904 25.5923 16.0023 25.6922C16.0044 25.7099 16.007 25.7275 16.0101 25.7451C16.0109 25.7498 16.0118 25.7544 16.0127 25.7591L16.0217 25.8145C16.0315 25.8741 16.0425 25.9334 16.0548 25.9923C16.0579 26.0073 16.0611 26.0223 16.0644 26.0373C16.0973 26.1876 16.1383 26.3355 16.1868 26.4803C16.2679 26.7218 16.3702 26.9547 16.4921 27.1761C16.6214 27.4109 16.7728 27.6328 16.9445 27.8385C17.0727 27.9921 17.2123 28.1366 17.3623 28.2708C17.3675 28.2754 17.3726 28.28 17.3778 28.2846C17.3882 28.2938 17.3986 28.3029 17.4091 28.3121C17.849 28.6935 18.3592 28.972 18.9043 29.1343C19.2698 29.2431 19.651 29.2997 20.0373 29.3C20.0386 29.3 20.0398 29.3 20.0411 29.3C20.0415 29.3 20.042 29.3 20.0425 29.3C21.1171 29.3001 22.1479 28.863 22.9086 28.0845C22.9177 28.0751 22.9269 28.0657 22.9359 28.0562C23.1161 27.8683 23.2772 27.6646 23.4179 27.4483C23.7053 27.0064 23.9076 26.512 24.0139 25.9923C24.0698 25.7187 24.099 25.438 24.1001 25.1543C24.1001 25.1516 24.1001 25.1489 24.1001 25.1462C24.1001 24.7186 24.0371 24.3064 23.9202 23.9186C23.8034 23.531 23.6329 23.1679 23.4179 22.8385H25.9001C25.9332 22.8385 25.9663 22.8381 25.9993 22.8373C26.3 22.8305 26.5971 22.7929 26.8866 22.7262C27.4402 22.5986 27.9659 22.3646 28.4354 22.0363C28.4694 22.0125 28.5031 21.9882 28.5365 21.9634C28.7292 21.8205 28.9118 21.6613 29.0821 21.4866C29.5116 21.0461 29.8454 20.5256 30.0696 19.9593C30.2858 19.413 30.4001 18.8241 30.4001 18.2231C30.4001 17.9244 30.3719 17.6287 30.3169 17.3398C30.1496 16.4596 29.7344 15.6419 29.1141 14.9927C29.1035 14.9816 29.0928 14.9705 29.0821 14.9595C28.4524 14.3137 27.6554 13.879 26.7955 13.7C26.5406 13.6469 26.2801 13.6162 26.0168 13.6092C25.978 13.6082 25.9391 13.6077 25.9001 13.6077C25.3165 13.6077 24.7447 13.724 24.2139 13.944C24.1918 13.9531 24.1697 13.9625 24.1478 13.972C23.9213 14.0702 23.7026 14.1875 23.4941 14.3228Z" fill="#101828"/>
</svg>
