<svg width="20" height="20" viewBox="0 0 20 20" fill="none" xmlns="http://www.w3.org/2000/svg">
<path fill-rule="evenodd" clip-rule="evenodd" d="M0.602322 0.602383C1.01088 0.193822 1.56501 -0.0357056 2.1428 -0.0357056H17.8571C18.4349 -0.0357056 18.989 0.193822 19.3976 0.602383C19.8061 1.01094 20.0357 1.56507 20.0357 2.14287V9.28572C20.0357 9.86352 19.8061 10.4176 19.3976 10.8262C18.989 11.2348 18.4349 11.4643 17.8571 11.4643H2.1428C1.56501 11.4643 1.01088 11.2348 0.602322 10.8262C0.193761 10.4176 -0.0357666 9.86352 -0.0357666 9.28572V2.14287C-0.0357666 1.56507 0.193761 1.01094 0.602322 0.602383ZM2.1428 1.46429C1.96284 1.46429 1.79024 1.53579 1.66298 1.66304C1.53573 1.7903 1.46423 1.9629 1.46423 2.14287V9.28572C1.46423 9.46569 1.53573 9.63829 1.66298 9.76555C1.79024 9.8928 1.96284 9.96429 2.1428 9.96429H17.8571C18.0371 9.96429 18.2097 9.8928 18.3369 9.76555C18.4642 9.63829 18.5357 9.46569 18.5357 9.28572V2.14287C18.5357 1.9629 18.4642 1.7903 18.3369 1.66304C18.2097 1.53579 18.0371 1.46429 17.8571 1.46429H2.1428Z" fill="#101828"/>
<path fill-rule="evenodd" clip-rule="evenodd" d="M4.17379 6.31668C4.58235 5.90812 5.13647 5.67859 5.71427 5.67859H14.2857C14.8635 5.67859 15.4176 5.90812 15.8262 6.31668C16.2347 6.72524 16.4643 7.27937 16.4643 7.85716V10.7143C16.4643 11.1285 16.1285 11.4643 15.7143 11.4643C15.3001 11.4643 14.9643 11.1285 14.9643 10.7143V7.85716C14.9643 7.67719 14.8928 7.5046 14.7655 7.37734C14.6383 7.25008 14.4657 7.17859 14.2857 7.17859H5.71427C5.5343 7.17859 5.3617 7.25008 5.23445 7.37734C5.10719 7.50459 5.0357 7.67719 5.0357 7.85716V10.7143C5.0357 11.1285 4.69991 11.4643 4.2857 11.4643C3.87148 11.4643 3.5357 11.1285 3.5357 10.7143V7.85716C3.5357 7.27937 3.76522 6.72524 4.17379 6.31668ZM5.71427 13.5357C6.12848 13.5357 6.46427 13.8715 6.46427 14.2857V15.8572C6.46427 16.5865 6.17454 17.286 5.65881 17.8017C5.14309 18.3174 4.44361 18.6072 3.71427 18.6072H3.57141C3.1572 18.6072 2.82141 18.2714 2.82141 17.8572C2.82141 17.4429 3.1572 17.1072 3.57141 17.1072H3.71427C4.04579 17.1072 4.36373 16.9755 4.59815 16.741C4.83257 16.5066 4.96427 16.1887 4.96427 15.8572V14.2857C4.96427 13.8715 5.30005 13.5357 5.71427 13.5357ZM9.99998 13.5357C10.4142 13.5357 10.75 13.8715 10.75 14.2857V19.2857C10.75 19.6999 10.4142 20.0357 9.99998 20.0357C9.58577 20.0357 9.24998 19.6999 9.24998 19.2857V14.2857C9.24998 13.8715 9.58577 13.5357 9.99998 13.5357ZM14.2857 13.5357C14.6999 13.5357 15.0357 13.8715 15.0357 14.2857V15.8572C15.0357 16.1887 15.1674 16.5066 15.4018 16.741C15.6362 16.9755 15.9542 17.1072 16.2857 17.1072H16.4286C16.8428 17.1072 17.1786 17.4429 17.1786 17.8572C17.1786 18.2714 16.8428 18.6072 16.4286 18.6072H16.2857C15.5564 18.6072 14.8569 18.3174 14.3412 17.8017C13.8254 17.286 13.5357 16.5865 13.5357 15.8572V14.2857C13.5357 13.8715 13.8715 13.5357 14.2857 13.5357Z" fill="#101828"/>
</svg>
