<svg width="20" height="20" viewBox="0 0 20 20" fill="none" xmlns="http://www.w3.org/2000/svg">
<path fill-rule="evenodd" clip-rule="evenodd" d="M5.31046 3.05001L5.31255 3.05L14.6896 3.05001C15.2886 3.0518 15.8625 3.29052 16.286 3.71404C16.7095 4.13756 16.9483 4.71147 16.95 5.31042L16.9501 5.31251L16.95 8.96484C17.2949 9.12234 17.6124 9.3412 17.8856 9.61443C18.4848 10.2136 18.8225 11.0256 18.825 11.8729L18.8251 11.875L18.8251 16.25C18.8251 16.6366 18.5116 16.95 18.125 16.95C17.7385 16.95 17.425 16.6366 17.425 16.25V11.8762C17.4234 11.399 17.2331 10.9418 16.8957 10.6044C16.5582 10.2669 16.1011 10.0767 15.6239 10.075H4.37622C3.89904 10.0767 3.44186 10.2669 3.10442 10.6044C2.76699 10.9418 2.57671 11.399 2.57505 11.8761V16.25C2.57505 16.6366 2.26165 16.95 1.87505 16.95C1.48845 16.95 1.17505 16.6366 1.17505 16.25V11.875L1.17505 11.8729C1.17756 11.0256 1.51528 10.2136 2.11447 9.61443C2.38769 9.3412 2.70516 9.12234 3.05005 8.96484V5.31042C3.05184 4.71147 3.29056 4.13756 3.71409 3.71404C4.13761 3.29052 4.71151 3.0518 5.31046 3.05001ZM15.55 8.67501V5.31377C15.5491 5.08497 15.4579 4.86579 15.2961 4.70399C15.1343 4.54221 14.9151 4.45092 14.6863 4.45001H5.31375C5.08498 4.45092 4.86582 4.54221 4.70404 4.70399C4.54225 4.86578 4.45097 5.08494 4.45005 5.31371V8.67501H15.55Z" fill="#101828"/>
<path fill-rule="evenodd" clip-rule="evenodd" d="M5.62309 6.80001L5.62505 6.8L8.75201 6.80001C9.2102 6.80129 9.65141 6.9635 10 7.2552C10.3487 6.9635 10.7899 6.80129 11.2481 6.80001L11.25 6.8L14.377 6.80001C14.8932 6.80145 15.3879 7.00716 15.7529 7.37217C16.1179 7.73719 16.3236 8.23184 16.325 8.74805L16.3251 8.75001L16.325 9.37501C16.325 9.76161 16.0116 10.075 15.625 10.075C15.2384 10.075 14.925 9.76161 14.925 9.37501V8.75116C14.9244 8.60518 14.8662 8.46535 14.7629 8.36212C14.6597 8.25888 14.5199 8.20062 14.3739 8.20001H11.2512C11.1052 8.20062 10.9654 8.25888 10.8622 8.36212C10.7589 8.46535 10.7007 8.60518 10.7 8.75116V9.37501C10.7 9.76161 10.3866 10.075 10 10.075C9.61345 10.075 9.30005 9.76161 9.30005 9.37501V8.75127C9.29946 8.60526 9.24119 8.46538 9.13793 8.36212C9.03469 8.25888 8.89485 8.20062 8.74887 8.20001H5.62623C5.48025 8.20062 5.34041 8.25888 5.23716 8.36212C5.13393 8.46536 5.07567 8.60519 5.07505 8.75116V9.37501C5.07505 9.76161 4.76165 10.075 4.37505 10.075C3.98845 10.075 3.67505 9.76161 3.67505 9.37501V8.74805C3.67649 8.23184 3.8822 7.73719 4.24722 7.37217C4.61223 7.00716 5.10688 6.80145 5.62309 6.80001ZM2.81052 14.3L2.81255 14.3L17.1896 14.3C17.6229 14.3013 18.0382 14.474 18.3446 14.7804C18.6511 15.0869 18.8238 15.5021 18.825 15.9355L18.8251 15.9375L18.8251 16.25C18.8251 16.6366 18.5116 16.95 18.125 16.95C17.7385 16.95 17.425 16.6366 17.425 16.25V15.9389C17.4247 15.8756 17.3994 15.8151 17.3547 15.7704C17.31 15.7256 17.2494 15.7004 17.1862 15.7H2.81391C2.75068 15.7004 2.69013 15.7256 2.64541 15.7704C2.60069 15.8151 2.57541 15.8756 2.57505 15.9389V16.25C2.57505 16.6366 2.26165 16.95 1.87505 16.95C1.48845 16.95 1.17505 16.6366 1.17505 16.25V15.9375L1.17505 15.9355C1.17631 15.5021 1.34902 15.0869 1.65546 14.7804C1.9619 14.474 2.37715 14.3013 2.81052 14.3Z" fill="#101828"/>
</svg>
