<svg width="20" height="20" viewBox="0 0 20 20" fill="none" xmlns="http://www.w3.org/2000/svg">
<path fill-rule="evenodd" clip-rule="evenodd" d="M4.16667 4.08333C3.66041 4.08333 3.25 4.49373 3.25 4.99999V16.6667C3.25 17.1729 3.66041 17.5833 4.16667 17.5833H15.8333C16.3396 17.5833 16.75 17.1729 16.75 16.6667V4.99999C16.75 4.49373 16.3396 4.08333 15.8333 4.08333H4.16667ZM1.75 4.99999C1.75 3.66531 2.83198 2.58333 4.16667 2.58333H15.8333C17.168 2.58333 18.25 3.66531 18.25 4.99999V16.6667C18.25 18.0013 17.168 19.0833 15.8333 19.0833H4.16667C2.83198 19.0833 1.75 18.0013 1.75 16.6667V4.99999Z" fill="#101828"/>
<path fill-rule="evenodd" clip-rule="evenodd" d="M13.3333 0.916672C13.7475 0.916672 14.0833 1.25246 14.0833 1.66667V5C14.0833 5.41422 13.7475 5.75 13.3333 5.75C12.919 5.75 12.5833 5.41422 12.5833 5V1.66667C12.5833 1.25246 12.919 0.916672 13.3333 0.916672Z" fill="#101828"/>
<path fill-rule="evenodd" clip-rule="evenodd" d="M6.66675 0.916672C7.08096 0.916672 7.41675 1.25246 7.41675 1.66667V5C7.41675 5.41422 7.08096 5.75 6.66675 5.75C6.25253 5.75 5.91675 5.41422 5.91675 5V1.66667C5.91675 1.25246 6.25253 0.916672 6.66675 0.916672Z" fill="#101828"/>
<path fill-rule="evenodd" clip-rule="evenodd" d="M1.75 8.33333C1.75 7.91911 2.08579 7.58333 2.5 7.58333H17.5C17.9142 7.58333 18.25 7.91911 18.25 8.33333C18.25 8.74754 17.9142 9.08333 17.5 9.08333H2.5C2.08579 9.08333 1.75 8.74754 1.75 8.33333Z" fill="#101828"/>
</svg>
