<svg width="20" height="20" viewBox="0 0 20 20" fill="none" xmlns="http://www.w3.org/2000/svg">
<path fill-rule="evenodd" clip-rule="evenodd" d="M10 3.25C6.27208 3.25 3.25 6.27208 3.25 10C3.25 13.7279 6.27208 16.75 10 16.75C13.7279 16.75 16.75 13.7279 16.75 10C16.75 6.27208 13.7279 3.25 10 3.25ZM1.75 10C1.75 5.44365 5.44365 1.75 10 1.75C14.5563 1.75 18.25 5.44365 18.25 10C18.25 14.5563 14.5563 18.25 10 18.25C5.44365 18.25 1.75 14.5563 1.75 10Z" fill="#101828"/>
<path fill-rule="evenodd" clip-rule="evenodd" d="M9.99996 6.16669C7.88292 6.16669 6.16663 7.88298 6.16663 10C6.16663 10.4142 5.83084 10.75 5.41663 10.75C5.00241 10.75 4.66663 10.4142 4.66663 10C4.66663 7.05456 7.0545 4.66669 9.99996 4.66669C10.4142 4.66669 10.75 5.00247 10.75 5.41669C10.75 5.8309 10.4142 6.16669 9.99996 6.16669Z" fill="#101828"/>
<path fill-rule="evenodd" clip-rule="evenodd" d="M9.99996 8.66669C9.26358 8.66669 8.66663 9.26364 8.66663 10C8.66663 10.7364 9.26358 11.3334 9.99996 11.3334C10.7363 11.3334 11.3333 10.7364 11.3333 10C11.3333 9.26364 10.7363 8.66669 9.99996 8.66669ZM7.16663 10C7.16663 8.43521 8.43515 7.16669 9.99996 7.16669C11.5648 7.16669 12.8333 8.43521 12.8333 10C12.8333 11.5648 11.5648 12.8334 9.99996 12.8334C8.43515 12.8334 7.16663 11.5648 7.16663 10Z" fill="#101828"/>
</svg>
