<svg width="20" height="20" viewBox="0 0 20 20" fill="none" xmlns="http://www.w3.org/2000/svg">
<path fill-rule="evenodd" clip-rule="evenodd" d="M16.1286 1.81053C16.4045 1.92864 16.5834 2.19987 16.5834 2.5V17.5C16.5834 17.9142 16.2476 18.25 15.8334 18.25H15.0001C14.5859 18.25 14.2501 17.9142 14.2501 17.5V15C14.2501 14.5858 14.5859 14.25 15.0001 14.25C15.0282 14.25 15.0561 14.2516 15.0834 14.2546V13.25H11.6667C11.2544 13.25 10.9193 12.9171 10.9168 12.5047C10.9071 10.9607 10.9423 9.31208 11.5259 7.54956C12.1132 5.77609 13.2356 3.94155 15.3157 1.95731C15.5329 1.75015 15.8527 1.69241 16.1286 1.81053ZM15.0834 11.75V4.37624C13.9658 5.68784 13.3241 6.89098 12.9499 8.02107C12.5311 9.2857 12.4333 10.4971 12.418 11.75H15.0834ZM4.16675 2.58334C4.58096 2.58334 4.91675 2.91912 4.91675 3.33334V5.83334C4.91675 6.29746 5.10112 6.74258 5.42931 7.07077C5.57229 7.21376 5.73747 7.32944 5.91675 7.41448V3.33334C5.91675 2.91912 6.25253 2.58334 6.66675 2.58334C7.08096 2.58334 7.41675 2.91912 7.41675 3.33334V7.41448C7.59602 7.32944 7.7612 7.21376 7.90419 7.07077C8.23237 6.74258 8.41675 6.29747 8.41675 5.83334V3.33334C8.41675 2.91912 8.75253 2.58334 9.16675 2.58334C9.58096 2.58334 9.91675 2.91912 9.91675 3.33334V5.83334C9.91675 6.69529 9.57434 7.52194 8.96485 8.13143C8.53541 8.56087 7.99818 8.85771 7.41675 8.99562V17.5C7.41675 17.9142 7.08096 18.25 6.66675 18.25C6.25253 18.25 5.91675 17.9142 5.91675 17.5V8.99562C5.33532 8.85771 4.79808 8.56087 4.36865 8.13143C3.75916 7.52194 3.41675 6.69529 3.41675 5.83334V3.33334C3.41675 2.91912 3.75253 2.58334 4.16675 2.58334Z" fill="#101828"/>
</svg>
