<svg width="20" height="20" viewBox="0 0 20 20" fill="none" xmlns="http://www.w3.org/2000/svg">
<path fill-rule="evenodd" clip-rule="evenodd" d="M5.37913 2.52498C5.04776 2.52498 4.77913 2.7936 4.77913 3.12498V15.8666C4.77913 16.198 5.04776 16.4666 5.37913 16.4666H14.625C14.9563 16.4666 15.225 16.198 15.225 15.8666V3.12498C15.225 2.7936 14.9563 2.52498 14.625 2.52498H5.37913ZM3.47913 3.12498C3.47913 2.07563 4.32978 1.22498 5.37913 1.22498H14.625C15.6743 1.22498 16.525 2.07563 16.525 3.12498V15.8666C16.525 16.916 15.6743 17.7666 14.625 17.7666H5.37913C4.32978 17.7666 3.47913 16.916 3.47913 15.8666V3.12498Z" fill="#101828"/>
<path fill-rule="evenodd" clip-rule="evenodd" d="M6.44579 3.42914C6.80478 3.42914 7.09579 3.72015 7.09579 4.07914V6.60414C7.09579 6.96312 6.80478 7.25414 6.44579 7.25414C6.08681 7.25414 5.79579 6.96312 5.79579 6.60414V4.07914C5.79579 3.72015 6.08681 3.42914 6.44579 3.42914ZM3.47913 8.20414C3.47913 7.84515 3.77014 7.55414 4.12913 7.55414H15.8708C16.2298 7.55414 16.5208 7.84515 16.5208 8.20414C16.5208 8.56312 16.2298 8.85414 15.8708 8.85414H4.12913C3.77014 8.85414 3.47913 8.56312 3.47913 8.20414ZM6.44579 8.97497C6.80478 8.97497 7.09579 9.26599 7.09579 9.62497V12.15C7.09579 12.509 6.80478 12.8 6.44579 12.8C6.08681 12.8 5.79579 12.509 5.79579 12.15V9.62497C5.79579 9.26599 6.08681 8.97497 6.44579 8.97497ZM5.26663 16.4666C5.62561 16.4666 5.91663 16.7577 5.91663 17.1166V17.475H6.78329V17.1166C6.78329 16.7577 7.07431 16.4666 7.43329 16.4666C7.79228 16.4666 8.08329 16.7577 8.08329 17.1166V17.5541C8.08329 17.8779 7.95467 18.1884 7.72572 18.4174C7.49677 18.6463 7.18624 18.775 6.86246 18.775H5.82855C5.50631 18.7726 5.19807 18.6429 4.97104 18.4142C4.74402 18.1856 4.61662 17.8764 4.61663 17.5541C4.61663 17.5541 4.61663 17.5541 4.61663 17.5541V17.1166C4.61663 16.7577 4.90764 16.4666 5.26663 16.4666ZM12.5625 16.4666C12.9214 16.4666 13.2125 16.7577 13.2125 17.1166V17.475H14.0875V17.1166C14.0875 16.7577 14.3785 16.4666 14.7375 16.4666C15.0964 16.4666 15.3875 16.7577 15.3875 17.1166V17.5541C15.3875 17.8779 15.2588 18.1884 15.0299 18.4174C14.8009 18.6463 14.4904 18.775 14.1666 18.775H13.1333C12.8095 18.775 12.499 18.6463 12.27 18.4174C12.0411 18.1884 11.9125 17.8779 11.9125 17.5541V17.1166C11.9125 16.7577 12.2035 16.4666 12.5625 16.4666Z" fill="#101828"/>
</svg>
