<svg width="20" height="20" viewBox="0 0 20 20" fill="none" xmlns="http://www.w3.org/2000/svg">
<path fill-rule="evenodd" clip-rule="evenodd" d="M2.45783 2.45783C2.91104 2.00461 3.52573 1.75 4.16667 1.75C4.80761 1.75 5.4223 2.00461 5.87551 2.45783C6.32872 2.91104 6.58333 3.52573 6.58333 4.16667C6.58333 4.80761 6.32872 5.4223 5.87551 5.87551C5.4223 6.32872 4.80761 6.58333 4.16667 6.58333C3.52573 6.58333 2.91104 6.32872 2.45783 5.87551C2.00461 5.4223 1.75 4.80761 1.75 4.16667C1.75 3.52573 2.00461 2.91104 2.45783 2.45783ZM4.16667 3.25C3.92355 3.25 3.69039 3.34658 3.51849 3.51849C3.34658 3.69039 3.25 3.92355 3.25 4.16667C3.25 4.40978 3.34658 4.64294 3.51849 4.81485C3.69039 4.98676 3.92355 5.08333 4.16667 5.08333C4.40978 5.08333 4.64294 4.98676 4.81485 4.81485C4.98676 4.64294 5.08333 4.40978 5.08333 4.16667C5.08333 3.92355 4.98676 3.69039 4.81485 3.51849C4.64294 3.34658 4.40978 3.25 4.16667 3.25ZM13.4167 6.66667C13.4167 6.25245 13.7525 5.91667 14.1667 5.91667H15.4167C15.9471 5.91667 16.4558 6.12738 16.8309 6.50245C17.206 6.87752 17.4167 7.38623 17.4167 7.91667C17.4167 8.4471 17.206 8.95581 16.8309 9.33088C16.4558 9.70595 15.9471 9.91667 15.4167 9.91667H14.9167V10.8333C14.9167 11.2475 14.5809 11.5833 14.1667 11.5833C13.7525 11.5833 13.4167 11.2475 13.4167 10.8333V6.66667ZM14.9167 8.41667H15.4167C15.5493 8.41667 15.6765 8.36399 15.7702 8.27022C15.864 8.17645 15.9167 8.04927 15.9167 7.91667C15.9167 7.78406 15.864 7.65688 15.7702 7.56311C15.6765 7.46934 15.5493 7.41667 15.4167 7.41667H14.9167V8.41667ZM13.4167 14.1667C13.4167 13.7525 13.7525 13.4167 14.1667 13.4167H15C15.6409 13.4167 16.2556 13.6713 16.7088 14.1245C17.1621 14.5777 17.4167 15.1924 17.4167 15.8333C17.4167 16.4743 17.1621 17.089 16.7088 17.5422C16.2556 17.9954 15.6409 18.25 15 18.25H14.1667C13.7525 18.25 13.4167 17.9142 13.4167 17.5V14.1667ZM14.9167 14.9167V16.75H15C15.2431 16.75 15.4763 16.6534 15.6482 16.4815C15.8201 16.3096 15.9167 16.0764 15.9167 15.8333C15.9167 15.5902 15.8201 15.3571 15.6482 15.1852C15.4763 15.0132 15.2431 14.9167 15 14.9167H14.9167Z" fill="#101828"/>
<path fill-rule="evenodd" clip-rule="evenodd" d="M4.16675 5.08333C4.58096 5.08333 4.91675 5.41911 4.91675 5.83333V8.33333C4.91675 8.35543 4.92553 8.37663 4.94116 8.39225C4.95678 8.40788 4.97798 8.41666 5.00008 8.41666H10.8334C11.2476 8.41666 11.5834 8.75245 11.5834 9.16666C11.5834 9.58087 11.2476 9.91666 10.8334 9.91666H8.25008V15C8.25008 15.0221 8.25886 15.0433 8.27449 15.0589C8.29012 15.0745 8.31131 15.0833 8.33341 15.0833H10.8334C11.2476 15.0833 11.5834 15.4191 11.5834 15.8333C11.5834 16.2475 11.2476 16.5833 10.8334 16.5833H8.33341C7.91349 16.5833 7.51076 16.4165 7.21383 16.1196C6.9169 15.8226 6.75008 15.4199 6.75008 15V9.91666H5.00008C4.58015 9.91666 4.17743 9.74985 3.8805 9.45291C3.58356 9.15598 3.41675 8.75325 3.41675 8.33333V5.83333C3.41675 5.41911 3.75253 5.08333 4.16675 5.08333Z" fill="#101828"/>
</svg>
