<svg width="24" height="24" viewBox="0 0 24 24" fill="none" xmlns="http://www.w3.org/2000/svg">
<path fill-rule="evenodd" clip-rule="evenodd" d="M14.4044 2.35467C15.2114 2.02029 16.0764 1.84818 16.95 1.84818C17.8235 1.84818 18.6885 2.02029 19.4955 2.35467C20.3024 2.68899 21.0355 3.17898 21.6529 3.79664C22.2708 4.41419 22.7609 5.14742 23.0953 5.95443C23.4297 6.76145 23.6018 7.62645 23.6018 8.5C23.6018 9.37356 23.4297 10.2385 23.0953 11.0456C22.7609 11.8525 22.2709 12.5857 21.6531 13.2032C21.6531 13.2032 21.6532 13.2031 21.6531 13.2032L12.8131 22.0432C12.5975 22.2588 12.305 22.38 12 22.38C11.695 22.38 11.4025 22.2588 11.1868 22.0432L2.3468 13.2032C1.09944 11.9558 0.398682 10.264 0.398682 8.5C0.398682 6.73597 1.09944 5.04419 2.3468 3.79683C3.59416 2.54947 5.28594 1.84871 7.04997 1.84871C8.814 1.84871 10.5058 2.54947 11.7531 3.79683L12 4.04365L12.2466 3.79702C12.2467 3.79696 12.2465 3.79708 12.2466 3.79702C12.8641 3.17927 13.5975 2.68903 14.4044 2.35467ZM16.95 4.14818C16.3785 4.14818 15.8127 4.26076 15.2848 4.47949C14.7569 4.69823 14.2773 5.01883 13.8733 5.42298L12.8131 6.48317C12.364 6.93228 11.6359 6.93228 11.1868 6.48317L10.1268 5.42317C9.31077 4.60715 8.204 4.14871 7.04997 4.14871C5.89594 4.14871 4.78917 4.60715 3.97315 5.42317C3.15712 6.2392 2.69868 7.34597 2.69868 8.5C2.69868 9.65403 3.15712 10.7608 3.97315 11.5768L12 19.6037L20.0268 11.5768C20.4309 11.1729 20.7517 10.693 20.9705 10.1651C21.1892 9.63724 21.3018 9.07142 21.3018 8.5C21.3018 7.92858 21.1892 7.36276 20.9705 6.83486C20.7517 6.30696 20.4311 5.82732 20.027 5.42336C19.623 5.01921 19.143 4.69823 18.6151 4.47949C18.0872 4.26076 17.5214 4.14818 16.95 4.14818Z" fill="#101828"/>
</svg>
