<svg width="20" height="20" viewBox="0 0 20 20" fill="none" xmlns="http://www.w3.org/2000/svg">
<path fill-rule="evenodd" clip-rule="evenodd" d="M2.49996 4.91669C2.47786 4.91669 2.45666 4.92547 2.44103 4.94109C2.42541 4.95672 2.41663 4.97792 2.41663 5.00002V15.8334C2.41663 15.8555 2.42541 15.8767 2.44103 15.8923C2.45666 15.9079 2.47786 15.9167 2.49996 15.9167H6.74996V4.91669H2.49996ZM8.24996 4.91669V15.9167H17.5C17.5221 15.9167 17.5433 15.9079 17.5589 15.8923C17.5745 15.8767 17.5833 15.8555 17.5833 15.8334V5.00002C17.5833 4.97792 17.5745 4.95672 17.5589 4.94109C17.5433 4.92547 17.5221 4.91669 17.5 4.91669H8.24996ZM1.38037 3.88043C1.67731 3.5835 2.08003 3.41669 2.49996 3.41669H17.5C17.9199 3.41669 18.3226 3.5835 18.6195 3.88043C18.9165 4.17737 19.0833 4.5801 19.0833 5.00002V15.8334C19.0833 16.2533 18.9165 16.656 18.6195 16.9529C18.3226 17.2499 17.9199 17.4167 17.5 17.4167H2.49996C2.08003 17.4167 1.67731 17.2499 1.38037 16.9529C1.08344 16.656 0.916626 16.2533 0.916626 15.8334V5.00002C0.916626 4.58009 1.08344 4.17737 1.38037 3.88043Z" fill="#101828"/>
<path fill-rule="evenodd" clip-rule="evenodd" d="M15.8491 6.05396C16.1875 6.29283 16.2682 6.7608 16.0293 7.0992L11.0293 14.1825C10.7904 14.5209 10.3225 14.6016 9.98407 14.3627C9.64567 14.1239 9.56499 13.6559 9.80386 13.3175L14.8039 6.23418C15.0427 5.89578 15.5107 5.81509 15.8491 6.05396ZM4.58325 6.33335C4.99747 6.33335 5.33325 6.66914 5.33325 7.08335V8.75002C5.33325 9.16423 4.99747 9.50002 4.58325 9.50002C4.16904 9.50002 3.83325 9.16423 3.83325 8.75002V7.08335C3.83325 6.66914 4.16904 6.33335 4.58325 6.33335Z" fill="#101828"/>
<path d="M5.41667 11.25C5.41667 10.7898 5.04357 10.4167 4.58333 10.4167C4.1231 10.4167 3.75 10.7898 3.75 11.25C3.75 11.7103 4.1231 12.0834 4.58333 12.0834C5.04357 12.0834 5.41667 11.7103 5.41667 11.25Z" fill="#101828"/>
<path d="M5.41667 13.75C5.41667 13.2898 5.04357 12.9167 4.58333 12.9167C4.1231 12.9167 3.75 13.2898 3.75 13.75C3.75 14.2103 4.1231 14.5834 4.58333 14.5834C5.04357 14.5834 5.41667 14.2103 5.41667 13.75Z" fill="#101828"/>
</svg>
