<svg width="18" height="20" viewBox="0 0 18 20" fill="none" xmlns="http://www.w3.org/2000/svg">
<g clip-path="url(#clip0_46_657)">
<path fill-rule="evenodd" clip-rule="evenodd" d="M9 1.58334C7.20979 1.58334 5.4929 2.2945 4.22703 3.56037C2.96116 4.82624 2.25 6.54313 2.25 8.33334C2.25 10.9486 3.9493 13.474 5.79446 15.4217C6.70171 16.3794 7.6115 17.163 8.29532 17.7076C8.57402 17.9295 8.81417 18.1109 9 18.2473C9.18583 18.1109 9.42598 17.9295 9.70468 17.7076C10.3885 17.163 11.2983 16.3794 12.2055 15.4217C14.0507 13.474 15.75 10.9486 15.75 8.33334C15.75 6.54313 15.0388 4.82624 13.773 3.56037C12.5071 2.2945 10.7902 1.58334 9 1.58334ZM9 19.1667C8.58397 19.7907 8.58378 19.7906 8.58356 19.7904L8.58297 19.79L8.58129 19.7889L8.57588 19.7853L8.55709 19.7726C8.54106 19.7617 8.51813 19.746 8.48875 19.7257C8.42998 19.685 8.34537 19.6256 8.23862 19.5485C8.02517 19.3943 7.72274 19.1691 7.36093 18.881C6.6385 18.3057 5.67329 17.4748 4.70554 16.4533C2.8007 14.4427 0.75 11.5515 0.75 8.33334C0.75 6.14531 1.61919 4.04689 3.16637 2.49971C4.71354 0.952537 6.81196 0.0833435 9 0.0833435C11.188 0.0833435 13.2865 0.952537 14.8336 2.49971C16.3808 4.04689 17.25 6.14531 17.25 8.33334C17.25 11.5515 15.1993 14.4427 13.2945 16.4533C12.3267 17.4748 11.3615 18.3057 10.6391 18.881C10.2773 19.1691 9.97482 19.3943 9.76138 19.5485C9.65462 19.6256 9.57002 19.685 9.51125 19.7257C9.48187 19.746 9.45894 19.7617 9.44291 19.7726L9.42412 19.7853L9.41871 19.7889L9.41703 19.79L9.41644 19.7904C9.41622 19.7906 9.41603 19.7907 9 19.1667ZM9 19.1667L9.41603 19.7907C9.1641 19.9587 8.8359 19.9587 8.58397 19.7907L9 19.1667Z" fill="#101828"/>
<path fill-rule="evenodd" clip-rule="evenodd" d="M9 6.58334C8.0335 6.58334 7.25 7.36685 7.25 8.33334C7.25 9.29984 8.0335 10.0833 9 10.0833C9.9665 10.0833 10.75 9.29984 10.75 8.33334C10.75 7.36685 9.9665 6.58334 9 6.58334ZM5.75 8.33334C5.75 6.53842 7.20507 5.08334 9 5.08334C10.7949 5.08334 12.25 6.53842 12.25 8.33334C12.25 10.1283 10.7949 11.5833 9 11.5833C7.20507 11.5833 5.75 10.1283 5.75 8.33334Z" fill="#101828"/>
</g>
<defs>
<clipPath id="clip0_46_657">
<rect width="18" height="20" fill="white"/>
</clipPath>
</defs>
</svg>
