<svg width="20" height="20" viewBox="0 0 20 20" fill="none" xmlns="http://www.w3.org/2000/svg">
<path fill-rule="evenodd" clip-rule="evenodd" d="M0.428517 3.28563C0.693747 3.0204 1.05348 2.8714 1.42857 2.8714H18.5714C18.9465 2.8714 19.3062 3.0204 19.5715 3.28563C19.8367 3.55086 19.9857 3.91059 19.9857 4.28568V15.7143C19.9857 16.0893 19.8367 16.4491 19.5715 16.7143C19.3062 16.9795 18.9465 17.1285 18.5714 17.1285H1.42857C1.05348 17.1285 0.693748 16.9795 0.428517 16.7143C0.163286 16.4491 0.0142822 16.0893 0.0142822 15.7143V4.28568C0.0142822 3.91059 0.163287 3.55086 0.428517 3.28563ZM1.42857 4.2714C1.42478 4.2714 1.42115 4.2729 1.41847 4.27558C1.41579 4.27826 1.41428 4.2819 1.41428 4.28568V15.7143C1.41428 15.718 1.41579 15.7217 1.41847 15.7244C1.42114 15.727 1.42478 15.7285 1.42857 15.7285H18.5714C18.5752 15.7285 18.5788 15.727 18.5815 15.7244C18.5842 15.7217 18.5857 15.718 18.5857 15.7143V4.28568C18.5857 4.28189 18.5842 4.27826 18.5815 4.27558C18.5788 4.2729 18.5752 4.2714 18.5714 4.2714H1.42857Z" fill="#101828"/>
<path fill-rule="evenodd" clip-rule="evenodd" d="M3.28569 6.14275C3.55092 5.87752 3.91065 5.72852 4.28575 5.72852H12.1429C12.518 5.72852 12.8777 5.87752 13.1429 6.14275C13.4082 6.40798 13.5572 6.76771 13.5572 7.1428V12.8571C13.5572 13.2322 13.4082 13.5919 13.1429 13.8571C12.8777 14.1224 12.518 14.2714 12.1429 14.2714H4.28575C3.91065 14.2714 3.55093 14.1224 3.28569 13.8571C3.02046 13.5919 2.87146 13.2322 2.87146 12.8571V7.1428C2.87146 6.76771 3.02047 6.40798 3.28569 6.14275ZM4.28575 7.12852C4.28196 7.12852 4.27832 7.13002 4.27564 7.1327C4.27296 7.13538 4.27146 7.13901 4.27146 7.1428V12.8571C4.27146 12.8609 4.27297 12.8645 4.27564 12.8672C4.27832 12.8699 4.28196 12.8714 4.28575 12.8714H12.1429C12.1467 12.8714 12.1503 12.8699 12.153 12.8672C12.1557 12.8645 12.1572 12.8609 12.1572 12.8571V7.1428C12.1572 7.13901 12.1557 7.13538 12.153 7.1327C12.1503 7.13002 12.1467 7.12852 12.1429 7.12852H4.28575ZM15.0143 7.1428C15.0143 6.7562 15.3277 6.4428 15.7143 6.4428H16.4286C16.8152 6.4428 17.1286 6.7562 17.1286 7.1428C17.1286 7.5294 16.8152 7.8428 16.4286 7.8428H15.7143C15.3277 7.8428 15.0143 7.5294 15.0143 7.1428ZM15.0143 9.99994C15.0143 9.61334 15.3277 9.29994 15.7143 9.29994H16.4286C16.8152 9.29994 17.1286 9.61334 17.1286 9.99994C17.1286 10.3865 16.8152 10.6999 16.4286 10.6999H15.7143C15.3277 10.6999 15.0143 10.3865 15.0143 9.99994Z" fill="#101828"/>
</svg>
