<svg width="20" height="20" viewBox="0 0 20 20" fill="none" xmlns="http://www.w3.org/2000/svg">
<path fill-rule="evenodd" clip-rule="evenodd" d="M4.76253 5.76632C3.92691 5.87871 3.45018 6.08885 3.10321 6.43613C2.75593 6.7831 2.5454 7.26022 2.43301 8.09585C2.31811 8.95016 2.31672 10.0771 2.31672 11.6667C2.31672 13.2563 2.31811 14.3833 2.43301 15.2376C2.54539 16.0732 2.75554 16.5499 3.10281 16.8969C3.44979 17.2442 3.92691 17.4547 4.76253 17.5671C5.61684 17.682 6.74376 17.6834 8.33339 17.6834H11.6667C13.2564 17.6834 14.3833 17.682 15.2376 17.5671C16.0732 17.4547 16.5499 17.2446 16.8969 16.8973C17.2442 16.5503 17.4547 16.0732 17.5671 15.2376C17.682 14.3833 17.6834 13.2563 17.6834 11.6667C17.6834 10.0771 17.682 8.95016 17.5671 8.09585C17.4547 7.26023 17.2446 6.7835 16.8973 6.43652C16.5503 6.08925 16.0732 5.87871 15.2376 5.76632C14.3833 5.65142 13.2564 5.65004 11.6667 5.65004H8.33339C6.74376 5.65004 5.61684 5.65142 4.76253 5.76632ZM8.28465 4.35004H11.7155C13.2454 4.35002 14.4598 4.35001 15.4109 4.47792C16.3907 4.6097 17.1877 4.88789 17.8165 5.51728C18.4457 6.14608 18.7238 6.94297 18.8555 7.92256C18.9834 8.87359 18.9834 10.0881 18.9834 11.618V11.7154C18.9834 13.2453 18.9834 14.4598 18.8555 15.4108C18.7237 16.3905 18.4456 17.1875 17.8163 17.8163C17.1875 18.4456 16.3906 18.7237 15.4109 18.8555C14.4598 18.9834 13.2454 18.9834 11.7155 18.9834H8.28463C6.75475 18.9834 5.54027 18.9834 4.58925 18.8555C3.60966 18.7237 2.81276 18.4456 2.18397 17.8165C1.55458 17.1877 1.27639 16.3906 1.14461 15.4108C1.0167 14.4598 1.01671 13.2453 1.01672 11.7154V11.618C1.01671 10.0881 1.0167 8.87359 1.14461 7.92256C1.27637 6.94287 1.55452 6.14591 2.18377 5.51708C2.8126 4.88783 3.60955 4.60969 4.58925 4.47792C5.54028 4.35001 6.75475 4.35002 8.28465 4.35004Z" fill="#101828"/>
<path fill-rule="evenodd" clip-rule="evenodd" d="M5.83339 8.15004C5.56375 8.15004 5.30516 8.25715 5.1145 8.44781C4.92384 8.63847 4.81672 8.89707 4.81672 9.1667C4.81672 9.43634 4.92384 9.69493 5.1145 9.88559C5.30516 10.0763 5.56375 10.1834 5.83339 10.1834H14.1667C14.4364 10.1834 14.695 10.0763 14.8856 9.88559C15.0763 9.69493 15.1834 9.43634 15.1834 9.1667C15.1834 8.89707 15.0763 8.63847 14.8856 8.44781C14.695 8.25715 14.4364 8.15004 14.1667 8.15004H5.83339ZM4.19526 7.52857C4.62972 7.09411 5.21897 6.85004 5.83339 6.85004H14.1667C14.7811 6.85004 15.3704 7.09411 15.8049 7.52857C16.2393 7.96303 16.4834 8.55228 16.4834 9.1667C16.4834 9.78112 16.2393 10.3704 15.8049 10.8048C15.3704 11.2393 14.7811 11.4834 14.1667 11.4834H5.83339C5.21897 11.4834 4.62972 11.2393 4.19526 10.8048C3.7608 10.3704 3.51672 9.78112 3.51672 9.1667C3.51672 8.55228 3.7608 7.96303 4.19526 7.52857ZM6.25006 13.5667C6.09093 13.5667 5.93831 13.6299 5.82579 13.7424C5.71327 13.855 5.65006 14.0076 5.65006 14.1667C5.65006 14.3258 5.71327 14.4784 5.82579 14.591C5.93832 14.7035 6.09093 14.7667 6.25006 14.7667C6.40919 14.7667 6.5618 14.7035 6.67432 14.591C6.78684 14.4784 6.85006 14.3258 6.85006 14.1667C6.85006 14.0076 6.78684 13.855 6.67432 13.7424C6.5618 13.6299 6.40919 13.5667 6.25006 13.5667ZM4.90655 12.8232C5.26287 12.4669 5.74615 12.2667 6.25006 12.2667C6.75397 12.2667 7.23724 12.4669 7.59356 12.8232C7.94988 13.1795 8.15006 13.6628 8.15006 14.1667C8.15006 14.6706 7.94988 15.1539 7.59356 15.5102C7.23724 15.8665 6.75397 16.0667 6.25006 16.0667C5.74615 16.0667 5.26287 15.8665 4.90655 15.5102C4.55023 15.1539 4.35006 14.6706 4.35006 14.1667C4.35006 13.6628 4.55023 13.1795 4.90655 12.8232Z" fill="#101828"/>
<path fill-rule="evenodd" clip-rule="evenodd" d="M13.0882 1.38993C13.2411 1.71474 13.1017 2.10197 12.7769 2.25483L5.69352 5.58816C5.36871 5.74101 4.98148 5.60161 4.82862 5.2768C4.67577 4.95198 4.81517 4.56475 5.13999 4.4119L12.2233 1.07856C12.5481 0.925707 12.9354 1.06511 13.0882 1.38993ZM12.5001 8.93336C12.8591 8.93336 13.1501 9.22438 13.1501 9.58336V10.8334C13.1501 11.1923 12.8591 11.4834 12.5001 11.4834C12.1411 11.4834 11.8501 11.1923 11.8501 10.8334V9.58336C11.8501 9.22438 12.1411 8.93336 12.5001 8.93336ZM10.1834 14.1667C10.1834 13.8077 10.4744 13.5167 10.8334 13.5167H15.0001C15.3591 13.5167 15.6501 13.8077 15.6501 14.1667C15.6501 14.5257 15.3591 14.8167 15.0001 14.8167H10.8334C10.4744 14.8167 10.1834 14.5257 10.1834 14.1667Z" fill="#101828"/>
</svg>
