<svg width="32" height="32" viewBox="0 0 32 32" fill="none" xmlns="http://www.w3.org/2000/svg">
<path fill-rule="evenodd" clip-rule="evenodd" d="M4.62615 4.62622C5.01667 4.2357 5.64983 4.2357 6.04036 4.62622L8.76019 7.34605C10.0687 6.34419 11.676 5.78898 13.342 5.78057C15.0113 5.77214 16.627 6.31316 17.947 7.30538L19.2928 5.95955C19.6833 5.56903 20.3165 5.56903 20.707 5.95955C21.0976 6.35008 21.0976 6.98324 20.707 7.37377L18.708 9.37277C18.7073 9.37354 18.7065 9.3743 18.7057 9.37506L9.37504 18.7058C9.37424 18.7066 9.37344 18.7074 9.37264 18.7081L7.37369 20.7071C6.98317 21.0976 6.35 21.0976 5.95948 20.7071C5.56895 20.3166 5.56895 19.6834 5.95948 19.2929L7.30531 17.9471C6.31309 16.6271 5.77206 15.0113 5.78049 13.3421C5.7889 11.676 6.34411 10.0688 7.34598 8.76027L4.62615 6.04044C4.23562 5.64991 4.23562 5.01675 4.62615 4.62622ZM8.73883 16.5135L16.5135 8.7389C15.5865 8.11318 14.486 7.77481 13.3521 7.78054C11.8767 7.78799 10.4639 8.3774 9.42059 9.42067C8.37732 10.4639 7.78792 11.8768 7.78046 13.3522C7.77474 14.4861 8.1131 15.5865 8.73883 16.5135ZM21.3333 12.3333C21.8855 12.3333 22.3333 12.781 22.3333 13.3333V13.3467C22.3333 13.8989 21.8855 14.3467 21.3333 14.3467C20.781 14.3467 20.3333 13.8989 20.3333 13.3467V13.3333C20.3333 12.781 20.781 12.3333 21.3333 12.3333ZM26.6666 13.6667C27.2189 13.6667 27.6666 14.1144 27.6666 14.6667V14.68C27.6666 15.2323 27.2189 15.68 26.6666 15.68C26.1143 15.68 25.6666 15.2323 25.6666 14.68V14.6667C25.6666 14.1144 26.1143 13.6667 26.6666 13.6667ZM17.3333 16.3333C17.8855 16.3333 18.3333 16.781 18.3333 17.3333V17.3467C18.3333 17.8989 17.8855 18.3467 17.3333 18.3467C16.781 18.3467 16.3333 17.8989 16.3333 17.3467V17.3333C16.3333 16.781 16.781 16.3333 17.3333 16.3333ZM22.6666 17.6667C23.2189 17.6667 23.6666 18.1144 23.6666 18.6667V18.68C23.6666 19.2323 23.2189 19.68 22.6666 19.68C22.1143 19.68 21.6666 19.2323 21.6666 18.68V18.6667C21.6666 18.1144 22.1143 17.6667 22.6666 17.6667ZM13.3333 20.3333C13.8855 20.3333 14.3333 20.781 14.3333 21.3333V21.3467C14.3333 21.8989 13.8855 22.3467 13.3333 22.3467C12.781 22.3467 12.3333 21.8989 12.3333 21.3467V21.3333C12.3333 20.781 12.781 20.3333 13.3333 20.3333ZM18.6666 21.6667C19.2189 21.6667 19.6666 22.1144 19.6666 22.6667V22.68C19.6666 23.2323 19.2189 23.68 18.6666 23.68C18.1143 23.68 17.6666 23.2323 17.6666 22.68V22.6667C17.6666 22.1144 18.1143 21.6667 18.6666 21.6667ZM14.6666 25.6667C15.2189 25.6667 15.6666 26.1144 15.6666 26.6667V26.68C15.6666 27.2323 15.2189 27.68 14.6666 27.68C14.1143 27.68 13.6666 27.2323 13.6666 26.68V26.6667C13.6666 26.1144 14.1143 25.6667 14.6666 25.6667Z" fill="#101828"/>
</svg>
