<svg width="32" height="32" viewBox="0 0 32 32" fill="none" xmlns="http://www.w3.org/2000/svg">
<path fill-rule="evenodd" clip-rule="evenodd" d="M8.0001 8.90001C6.28115 8.90001 4.9001 10.2811 4.9001 12V22C4.9001 23.7189 6.28115 25.1 8.0001 25.1H24.0001C25.719 25.1 27.1001 23.7189 27.1001 22V12C27.1001 10.2811 25.719 8.90001 24.0001 8.90001H8.0001ZM3.1001 12C3.1001 9.28695 5.28704 7.10001 8.0001 7.10001H24.0001C26.7132 7.10001 28.9001 9.28695 28.9001 12V22C28.9001 24.7131 26.7132 26.9 24.0001 26.9H8.0001C5.28704 26.9 3.1001 24.7131 3.1001 22V12Z" fill="#101828"/>
<path fill-rule="evenodd" clip-rule="evenodd" d="M11.1001 30C11.1001 29.5029 11.503 29.1 12.0001 29.1H20.0001C20.4972 29.1 20.9001 29.5029 20.9001 30C20.9001 30.4971 20.4972 30.9 20.0001 30.9H12.0001C11.503 30.9 11.1001 30.4971 11.1001 30Z" fill="#101828"/>
<path fill-rule="evenodd" clip-rule="evenodd" d="M22.6365 1.36361C22.988 1.71508 22.988 2.28493 22.6365 2.6364L16.6365 8.6364C16.285 8.98787 15.7152 8.98787 15.3637 8.6364C15.0122 8.28493 15.0122 7.71508 15.3637 7.36361L21.3637 1.36361C21.7152 1.01214 22.285 1.01214 22.6365 1.36361Z" fill="#101828"/>
<path fill-rule="evenodd" clip-rule="evenodd" d="M9.3637 1.36361C9.71517 1.01214 10.285 1.01214 10.6365 1.36361L16.6365 7.36361C16.988 7.71508 16.988 8.28493 16.6365 8.6364C16.285 8.98787 15.7152 8.98787 15.3637 8.6364L9.3637 2.6364C9.01223 2.28493 9.01223 1.71508 9.3637 1.36361Z" fill="#101828"/>
</svg>
