<svg width="20" height="20" viewBox="0 0 20 20" fill="none" xmlns="http://www.w3.org/2000/svg">
<path fill-rule="evenodd" clip-rule="evenodd" d="M10.0002 3.08895C9.33727 3.88136 8.19887 5.31826 7.18498 6.96991C6.03176 8.84851 5.125 10.8709 5.125 12.5C5.125 14.0664 5.61483 15.2681 6.42335 16.0767C7.23186 16.8852 8.43356 17.375 10 17.375C11.5664 17.375 12.7681 16.8852 13.5767 16.0767C14.3852 15.2681 14.875 14.0664 14.875 12.5C14.875 10.8709 13.9682 8.8485 12.8151 6.9699C11.8012 5.31829 10.663 3.88142 10.0002 3.08895ZM9.49065 1.5462C9.65045 1.47265 9.82428 1.43457 10.0002 1.43457C10.1761 1.43457 10.3499 1.47265 10.5097 1.5462C10.6695 1.61975 10.8115 1.72702 10.9259 1.86063L10.9264 1.86115C11.5566 2.59852 12.9018 4.24386 14.0934 6.18518C15.2656 8.09467 16.375 10.4248 16.375 12.5C16.375 14.3855 15.7783 15.9963 14.6373 17.1373C13.4963 18.2783 11.8855 18.875 10 18.875C8.11448 18.875 6.50368 18.2783 5.36269 17.1373C4.22169 15.9963 3.625 14.3855 3.625 12.5C3.625 10.4248 4.73445 8.09466 5.90663 6.18517C7.09835 4.24384 8.4436 2.59849 9.07409 1.86106L9.07445 1.86063C9.18887 1.72701 9.33085 1.61974 9.49065 1.5462Z" fill="black"/>
<path fill-rule="evenodd" clip-rule="evenodd" d="M13.4375 12.0625C13.8517 12.0625 14.1875 12.3983 14.1875 12.8125C14.1875 13.7573 13.8122 14.6635 13.1441 15.3316C12.476 15.9997 11.5698 16.375 10.625 16.375C10.2108 16.375 9.875 16.0392 9.875 15.625C9.875 15.2108 10.2108 14.875 10.625 14.875C11.172 14.875 11.6966 14.6577 12.0834 14.2709C12.4702 13.8841 12.6875 13.3595 12.6875 12.8125C12.6875 12.3983 13.0233 12.0625 13.4375 12.0625Z" fill="black"/>
</svg>
