<?xml version="1.0" encoding="UTF-8"?>
<!DOCTYPE svg PUBLIC "-//W3C//DTD SVG 1.1//EN" "http://www.w3.org/Graphics/SVG/1.1/DTD/svg11.dtd">
<!-- Creator: CorelDRAW -->
<svg xmlns="http://www.w3.org/2000/svg" xml:space="preserve" width="3000px" height="1120px" version="1.1" style="shape-rendering:geometricPrecision; text-rendering:geometricPrecision; image-rendering:optimizeQuality; fill-rule:evenodd; clip-rule:evenodd"
viewBox="0 0 2760.29 1030.33"
 xmlns:xlink="http://www.w3.org/1999/xlink"
 xmlns:xodm="http://www.corel.com/coreldraw/odm/2003">
 <defs>
  <style type="text/css">
   <![CDATA[
    .fil2 {fill:none}
    .fil0 {fill:#575657}
    .fil3 {fill:#575657}
    .fil1 {fill:white}
   ]]>
  </style>
 </defs>
 <g id="Layer_x0020_1">
  <metadata id="CorelCorpID_0Corel-Layer"/>
  <path class="fil0" d="M1008.83 921.29c4.3,8.96 0.85,21.61 13.72,34.29 10.48,10.33 16.4,11.73 36.27,11.73l144.98 0c18.54,0 28.54,-0.31 39.17,-8.83 9.04,-7.25 13.45,-16.78 29.79,-18.26 15.46,-1.41 33.24,0.13 49.02,-0.3 32.06,-0.86 62.54,-0.05 93.98,-0.05 32.32,0 64.7,-0.04 96.99,0 31.68,0.04 64.47,-0.9 95.98,0.07 22.67,0.69 54.04,3.88 67.4,-16.23 2.4,-3.61 2.33,-5.33 6.73,-6.42 5.52,5.53 1.08,22.38 16.49,47.36 4.3,6.97 8.28,13.1 13.6,18.43 3.48,3.48 14.36,12.18 12.49,18.86 -2.1,7.55 -17.61,5.38 -26.72,5.38l-704.89 0c-9.04,0 -24.44,2.21 -28.71,-3.36 -5.49,-7.17 6.98,-16.36 9.98,-19.38 12.48,-12.56 24.03,-34.42 27.24,-52.75 1.18,-6.76 -0.6,-10.38 6.49,-10.54zm743.88 -10c0,-11.62 4.81,-20.2 10.28,-26.73 5.03,-6.01 17.66,-12.28 23.71,-12.28 15.59,0 21.18,0.73 33.26,12.73 29.97,29.76 -8.67,81.25 -47.59,59.63 -4.04,-2.25 -6.46,-4.37 -9.43,-7.57 -5.5,-5.93 -10.23,-15.21 -10.23,-25.78zm-893.85 -1c0,-19.77 17.48,-38.01 36.99,-38.01 23.91,0 40.99,18.03 40.99,38.01 0,37 -45.31,52.14 -68.24,26.26 -5.27,-5.95 -9.74,-15.62 -9.74,-26.26zm401.93 -55.02c0,-10.2 10.99,-22 21,-22l72.98 0c7.82,0 16,6.63 16,14l0 52.02c0,9.61 -9.6,18 -19,18l-68.98 0c-6.37,0 -11.98,-3.38 -15.3,-6.7 -2.83,-2.82 -6.7,-9.01 -6.7,-14.3l0 -41.02zm312.59 -1c0,-8.41 -0.31,-10.81 4,-15.37 3.35,-3.56 6.74,-5.63 12.35,-5.63l429.93 0c11.46,0 22,10.17 22,21 0,14.53 -11.65,11.5 -31,11.5 -22.46,0 -15.6,19.75 -7.56,22.09 6.09,1.77 24.59,-1.04 30.94,1.05 15.48,5.1 0.95,28.38 -17.38,28.38l-76.98 0c-6.02,0 -10.74,-2.93 -13.81,-6.19 -3.88,-4.13 -4.09,-7.92 -5.83,-14.18 -8.91,-31.93 -32.67,-52.65 -66.35,-52.65l-129.98 0c-17.2,0 -39.25,12.91 -49.41,27.58 -15.52,22.4 -9.21,45.44 -30.57,45.44l-51 0c-7.08,0 -12.44,-4.07 -15.75,-8.24 -5.79,-7.27 -3.6,-44.13 -3.6,-54.78zm-897.49 -52.01c0,-1.25 11.14,-25.01 20.99,-25.01 7.14,0 19,-1.56 19,9 0,3.19 -12.85,20.01 -26,20.01 -6.01,0 -13.99,1.31 -13.99,-4zm-42 1c0,-4.94 6.79,-14.37 9.27,-17.75 4.44,-6.07 7.16,-10.03 16.94,-8.56 5.49,0.82 6.89,2.02 4.61,6.97 -4.13,8.92 -10.06,22.34 -17.82,22.34 -9.16,0 -13,1.26 -13,-3zm204.97 -82.03c3.37,0 6.56,-1.93 8.1,-3.9 3.88,-4.97 -0.45,-13.96 8.29,-26.74 5.37,-7.84 42.4,-34.74 50.88,-41.1 9.09,-6.81 16.71,-13.18 26.11,-19.87 4.61,-3.28 8.35,-6.63 13.02,-10l39.93 -29.06c14,-10.72 28.18,-19.16 45.62,-23.39 3.12,-0.76 6.66,-1.63 10.1,-1.91 3.47,-0.3 7.37,-1.08 9.91,-1.08l172.98 0c8.44,0 14.99,6.16 14.99,14l0 145.05c0,8.98 -7.05,16.56 -14.01,19.01 -5.2,1.83 -23.65,1 -30.98,1l-421.93 -0.01c-6.27,-0.02 -19.99,-0.86 -19.6,12 0.37,12.02 14.58,11.03 21.6,11.01l355.94 0c10.8,0 89.32,-1.42 95.92,1.07 6.27,2.36 13.06,9.84 13.06,18.94l0 136.04c0,11.45 -8.92,21.95 -23.97,22.29 -18.99,0.43 -166.21,1.31 -171.9,-1.34 -1.93,-0.9 -7.09,-5.07 -7.09,-7.94 0,-4.99 2.81,-4.13 8.96,-4.04l128.01 0.04c14.06,0 35,3.74 35,-11.01 0,-15.72 -19.27,-12 -36,-12l-93.98 0c-14.04,0 -33.98,2.43 -43.61,-3.38 -5.44,-3.28 -8.58,-7.14 -11.4,-12.61 -13.29,-25.88 -31.72,-46.11 -59.49,-57.54 -9.46,-3.89 -27.65,-9.5 -37.47,-9.5 -32.63,0 -61.49,-3.49 -92.15,8.85 -19.04,7.66 -38.52,22.81 -50.25,39.77 -7.29,10.55 -11.24,17.51 -15.47,29.52 -8.22,23.36 -3.26,42.1 -25.25,41.3l-66.89 -0.09c-8.36,0.13 -29.69,-0.59 -29.95,-12.31 16.76,-0.92 32,1.47 32,-10.01 0,-11.41 -16.71,-9 -24,-9 -20.42,0 -25.99,2.64 -25.99,-7 0,-14.74 37.99,3.26 37.99,-14.01 0,-19.95 -37.99,-2.61 -37.99,-14l0 -5c0,-11.25 37.99,5.5 37.99,-14.01 0,-24.6 -37.99,-1.08 -37.99,-20 0,-12.67 8.39,-10.01 22.99,-10.01 13.99,0 44.39,1.21 56.01,-3.98 15.45,-6.91 40.67,-30.5 27.96,-54 -10.48,-19.37 -28.86,-14.98 -41.98,-18.04 0.1,-4.42 -0.61,-2.34 1.37,-4.63 0,0 3.62,-2.37 3.63,-2.38 22.5,-12.09 84.34,-31.1 110.39,-37.6 6.54,-1.64 11.36,-3.86 17.59,-2.41 2.38,10.2 2.5,15.01 13,15.01zm554.91 -207.07c0,-7.09 4.27,-12.36 9.26,-14.74 8.16,-3.89 57.69,-2.26 68.72,-2.26 11.28,0 61.39,-1.75 69.72,2.27 3.89,1.88 9.27,8.23 9.27,13.73l0 188.06c0,4.46 -2.97,8.23 -6.22,9.83 -7.34,3.63 -33.96,-4.37 -33.65,13.14 0.07,4.16 3.16,7.87 6.33,9.64 6.83,3.81 20.98,-1.13 27.96,3.04 3.09,1.84 5.58,5.54 5.58,9.37l0 146.04c0,8.39 -6.66,17.01 -15,17.01l-125.98 0c-8.96,0 -15.99,-7.24 -15.99,-16.01l0 -147.04c0,-12.1 13.19,-11.05 18.99,-11.01 5.27,0.04 9.96,0.61 13.77,-1.2 3.25,-1.54 6.23,-4.37 6.23,-8.8 0,-11.21 -4.35,-13.11 -19.99,-13.01 -4.92,0.04 -19,1.58 -19,-10l0 -188.06zm-293.45 -145.11c15.79,-2.6 41.21,-0.93 58.49,-0.93 98.98,0 197.96,0 296.95,0 64.58,0 106.74,3.25 167.77,10.23 17.33,1.98 36.13,4.17 53.27,5.69 35.32,3.12 73.67,8.37 107.92,11.06 35.74,2.81 71.7,8.21 107.93,11.1l80.59 8.36c8.83,1.24 17.68,1.93 26.39,2.64 16.01,1.3 32.41,2.02 37.29,22.68 2.17,9.16 0.7,45.18 0.73,58.29l3.46 292.52c-3.96,22.36 -22.3,19.99 -39.44,19.99 -80.01,0 -156.57,0 -235.96,0 -39.69,0 -79.35,0 -118.98,0 -10,0 -20.04,0.16 -30,-0.16 -8.8,-0.28 -20.27,0.66 -27.77,0.13 -20.45,-1.45 -15.56,-22.85 -15.58,-43.41 -0.06,-79.37 0.08,-158.71 0,-238.07 -0.02,-23.64 1.51,-36 -12.47,-47.19 -5.88,-4.71 -12.44,-6.91 -23.16,-6.84 -29.27,0.18 -133.01,-2.46 -145.13,1.86 -17.98,6.41 -21.89,20.15 -21.85,38.16l0 268.09c0,33.98 -6.24,26.94 -60.99,27.43 -22.26,0.2 -38.88,2.84 -46.45,-12.95 -5.11,-10.67 -2.54,-41.9 -2.54,-57.49l0 -119.04c0,-27.29 6.41,-59.61 -15.7,-73.3 -8.5,-5.25 -11.7,-5.76 -24.29,-5.73l-236.97 0.01c-19.37,0.1 -34.09,-5.5 -45.29,-13.7 -11.46,-8.39 -20.83,-19.96 -17.32,-41.95 2.75,-17.16 11.56,-27.74 21.37,-37.64 27.63,-27.9 92.96,-66.75 131.62,-76.38 18.98,-4.73 16.8,-1.94 26.11,-3.46zm1153.3 240.14c0.03,-8.31 3.85,-12.12 7.28,-17.73 18.86,-30.89 34.06,-62.86 47.43,-96.59 1.92,-4.86 5.12,-12.72 6.28,-17.72l4.13 9.88c5.63,17.08 12.57,33.6 20.54,49.47 9.18,18.29 18.76,36.77 29.51,54.5 1.71,2.81 11.81,16.5 4.87,17.16 -5.36,0.51 -10.95,-8.97 -18.05,-8.97 -5.56,0 -11,4.51 -11,10 0,11.08 15.92,43.96 21.62,54.35 4.81,8.75 8.47,15.34 13.77,23.28 3.86,5.78 12.6,16.47 12.6,24.41 0,9.51 -23.48,-7.01 -26,-7.01 -7.72,0 -13.54,5.43 -12.19,13.28 0.78,4.51 5.39,13.07 7.19,16.75 11.56,23.62 25.89,46.02 43.74,65.26 6.02,6.49 14.26,11.86 14.26,21.75 -11.46,0 -21.85,-7 -26,-7 -5.87,0 -11,5.09 -11,11 0,7.54 14.23,34.65 18.41,41.6 7.02,11.69 14.76,23.2 24.33,32.68 9.86,9.78 19.14,18.71 30.64,26.36 5.77,3.84 30.6,19.4 37.6,19.4 6.73,0 26.96,-15.72 32.25,-20.74 9.13,-8.66 17.91,-16.65 25.62,-26.4 7.72,-9.78 14.85,-19.56 21.1,-30.89 3.25,-5.9 15.02,-28.38 15.02,-36.01 0,-6.54 -5.39,-11 -11,-11 -6.1,0 -13.02,6.05 -22.06,6.18 -5.77,0.09 -7.5,-1.29 -5.67,-7.81l26.16 -41.95c7.09,-11.91 12.56,-23.5 18.91,-36.1l16.65 -38.36c2.14,4.45 4.35,11.25 6.5,16.48l14.49 31.56c2.44,4.94 4.63,9.62 7.34,14.65 3.74,6.96 33.66,54.27 33.66,56.35 0,12.05 -25.67,-1 -28.99,-1 -5.06,0 -10.18,4.83 -10.7,10.25 -0.76,7.93 16.55,33.61 21.49,40.97 8.44,12.57 17.06,24.64 26.95,36.05 6.74,7.77 12.86,19.97 -5.69,15.72 -7.17,-1.64 -17.64,-7.47 -24.67,-4.63 -15.77,6.37 1.76,26.75 6.62,33.68 9.55,13.59 20.81,25.34 32.74,37.26 2.93,2.93 6.91,5.87 8.28,9.83 1.51,4.35 -1.79,7.93 -7.03,7.93l-823.86 0c-4.5,0 -10,-1.89 -10,-6 0,-8.36 8.41,-12.95 13.94,-20.02 9.26,-11.82 17.56,-24.58 22.15,-39.93 1.17,-3.92 2.09,-8.08 2.77,-12.2 0.48,-2.89 0.54,-4.34 1.07,-6.94 0.91,-4.48 -0.5,-1.31 2.13,-4.87 5.47,0.58 5.33,4.41 8.68,8.19 9.38,10.57 19.12,14.32 35.25,14.32 24.6,0 67.49,3.58 86.88,-2.67 17.71,-5.72 34.1,-22.42 34.1,-42.92l0 -67.02c0,-5.41 -1.02,-9.24 -1.02,-14.97l-0.98 -110.07c0,-42.62 -1,-83.32 -1,-126.04l-2.02 -125.01c-0.21,-13.69 0.44,-17.11 -4.63,-27.38 -3.81,-7.7 -7.94,-12.87 -14.27,-17.77 -15.44,-11.95 -28.35,-9.24 -50.62,-12.33 -37.47,-5.2 -77.63,-7.08 -115.15,-11.86 -37.17,-4.72 -76.51,-7.52 -115.04,-11.93l-229.19 -23.79 -433.92 0c-28.42,0 -58.99,13.74 -82,25.97 -13.64,7.25 -27.62,14.86 -40.24,23.79 -12.76,9.04 -25.29,17.61 -37.38,27.6 -11.85,9.79 -22.49,19.9 -29.69,34.33 -8.5,17.03 -12.65,37.04 -7.04,55.74 3.79,12.64 11.54,23.29 21.93,31.08 7.06,5.29 13.03,8.96 22.14,12.85 14.17,6.06 36.11,8.05 14.59,24.01l-32.71 24.29c-15.34,11.39 -29.07,21.79 -43.79,33.2 -45.25,35.07 -41.17,36.64 -100.76,53.25 -19.72,5.5 -39.72,11.91 -58.04,18.95 -34.58,13.3 -72.89,27.95 -95.95,58.06 -9.39,12.25 -22.98,35.93 -22.98,53.03l0 75.03c0,37.11 28.06,70.02 63.99,70.02l80.98 0c11.33,0 22.22,-9.6 26.97,-16.05 6.73,-9.15 7.01,-29.97 12.03,-29.97 4.15,0 3.63,7.76 4.42,11.58 8.77,42.36 38.57,57.68 38.57,67.45 0,4.83 -6.05,7 -11,7l-740.87 0c-11.04,0 -8.26,-8.84 -3.27,-14.27 5.88,-6.4 12.86,-12.34 18.4,-19.59 4.02,-5.26 6.85,-9.18 10.68,-15.32 4.04,-6.47 8.18,-13.19 8.18,-20.84 0,-5.67 -8.06,-9.35 -13.22,-8.28 -1.11,0.23 -39.46,13.53 -19.13,-11.12 7.39,-8.96 14.57,-17.8 20.01,-27.96 3.83,-7.15 7.09,-13.17 10.57,-21.42 4.19,-9.97 16.68,-36.26 -4.23,-36.26 -4.68,0 -39.82,23.91 -16.2,-11.2 16.43,-24.43 30.24,-50.48 42.55,-77.47 2.69,-5.89 4.75,-10.59 7.22,-16.79 1.33,-3.33 2.26,-5.59 3.44,-8.56 1.14,-2.9 1.88,-5.54 3.34,-8.66 4.08,6.9 6.36,15.37 9.36,22.94 3.23,8.15 6.8,15.19 10.15,22.89 8.56,19.63 63.94,115.87 80.12,115.87 9.23,0 36.99,-28.39 43.89,-37.09 3.94,-4.95 8.31,-9.82 12.24,-14.79 9.17,-11.57 37.85,-56.13 37.85,-70.16 0,-6.04 -5.87,-10 -12,-10 -4.23,0 -9.76,4.76 -13.32,6.67 -35.24,18.98 -8.66,-16.44 -0.26,-29.27 9.63,-14.71 36.39,-64.52 35.96,-78.44 -0.18,-5.86 -4.93,-11 -11.38,-11 -7.72,0 -12.92,11.77 -23.99,12 0,-8.68 4.22,-13.67 7.8,-19.2 8.56,-13.22 16.65,-28.03 23.87,-42.16 10.72,-20.99 20.43,-41.98 28.72,-64.31 2.18,-5.89 5.54,-13.64 6.6,-19.37 2.95,2.16 3.62,7.37 4.99,11 9.86,25.96 20.87,50.62 33.33,75.69 6.96,13.99 14.8,27 23.04,39.98 23.21,36.55 -12.83,6.37 -16.37,6.37 -6.48,0 -12,4.56 -12,11 0,5.88 8.68,25.77 11.2,31.79 7.94,18.92 18.07,36.12 29.19,52.84 1.4,2.09 21.4,28.41 10.6,28.41 -10.34,0 -21.38,-12 -28.99,-12 -4.7,0 -9.42,2.69 -10.69,7.33 -3.9,14.15 28.91,62.01 38.22,74.16 2.68,3.5 4.93,6.12 7.64,9.38 12.2,14.64 25.75,27.61 40.8,39.18 3.11,2.39 5.96,4.18 9.33,6.68 12,8.93 22.68,5.96 22.68,-4.69 0,-7.3 -4.99,-10.69 -10.01,-14.01 -8.66,-5.74 -16.58,-13.12 -24.27,-19.72 -7.87,-6.76 -15.19,-14.49 -21.57,-22.43 -5.87,-7.3 -25.15,-30.17 -26.14,-38.87 12.7,6.09 37.76,10 54.99,10 12.95,0 13.01,-15.09 4.62,-21.66 -11.8,-9.23 -22.05,-20.94 -31.84,-32.13 -11.56,-13.24 -36.32,-48.47 -39.77,-63.25 7.38,1.75 13.84,5.67 20.82,8.19 8.57,3.1 34.18,13.01 34.18,-5.19 0,-5.18 -5.76,-10.9 -8.13,-13.87 -23.35,-29.29 -43.77,-59.96 -60.53,-93.49 -14.77,-29.57 -27.16,-61.92 -37.95,-94.08 -3.2,-9.53 -4.91,-27.63 -15.37,-27.63 -9.14,0 -10.91,3.48 -13.44,12.57 -16.16,58.2 -41.61,114.49 -74.75,164.29 -5.8,8.71 -11.77,17.46 -18.25,25.74 -5.48,7 -17.54,18.54 -17.54,27.47 0,22.96 47.51,-1.04 54.99,-5 -1.47,6.3 -12.1,24.14 -15.81,30.21 -14.17,23.22 -31.58,45.35 -52.35,62.62 -18.21,15.15 -6.95,25.21 0.17,25.21 17.89,0 40.03,-2.34 55.99,-10 -3.32,12.44 -44.07,63.83 -55.99,67.02 -2.59,-3.87 -4.83,-6.42 -7.72,-10.29 -28.69,-38.45 -52.29,-79.75 -69.11,-124.92l-13.3 -39.71c-4.84,-10.15 -17.4,-9.17 -21.26,1.46 -1.96,5.38 -3.02,9.87 -4.74,15.25 -9.27,28.98 -21,57.4 -35.67,83.37l-30.17 48.82c-5.17,7.69 -11.55,15.91 -16.98,23.03 -4.35,5.71 -16.02,15.38 -16.02,22.99 0,18.15 25.32,11.23 36.4,8.41 6.14,-1.56 12.72,-3.06 17.6,-5.4 -3.37,14.44 -21.2,34.69 -31.25,44.76 -9.68,9.7 -20.14,17.92 -32.42,24.56 -8.93,4.83 -9.71,17.98 1.11,21.27 13.33,4.05 28.09,2.43 41.56,2.43 3.59,0 5.99,-1 11,-1 -3.23,4.83 -4.65,5.67 -8.22,9.82 -3.71,4.33 -3.57,4.57 -8.38,8.54 -13.23,10.9 -25.56,20.29 -41.97,27.09 -7.09,2.94 -19.42,5.88 -19.42,14.57 0,5.89 4.86,12.01 11,12.01l2738.54 0c11.46,0 15.81,-15.58 2.68,-22.69 -4.29,-2.33 -7.24,-4.05 -11.28,-6.72 -12.62,-8.36 -51.32,-38.91 -56.74,-51.62 4.87,0 6.2,0.54 10.44,0.93 9.73,0.89 32.68,3.56 40.15,-1.69 14.72,-10.33 -6.77,-24.26 -13.49,-31 -12.96,-12.99 -25.36,-27.06 -36.32,-41.69 -3.11,-4.14 -14.3,-19.38 -15.43,-23.58 10.89,0 31.48,4.66 41.39,-0.6 13.68,-7.25 1.65,-18.88 -3.54,-25.26l-26.45 -35.56c-5.58,-8.39 -10.61,-15.96 -15.73,-25.25l-14.66 -27.37c-9.29,-18.56 -17.41,-38.79 -24.13,-58.88 -3.1,-9.28 -4.67,-25.14 -15.87,-25.14 -11.72,0 -12.73,13.72 -15.62,22.38 -11.7,35.12 -22.33,57.38 -39.71,89.31 -6.28,11.54 -13.57,22.29 -21.07,32.95 -5.47,7.78 -10.05,13.76 -15.86,21.15 -3.83,4.88 -14.72,15.41 -14.72,21.27 0,12.62 13.67,13 24,13l27.99 -3c-15.48,29.29 -36.36,52.19 -62.99,70.02l-23.86 -14.15c-7.84,-5.13 -14.01,-10.23 -20.38,-16.61 -9.52,-9.53 -28.95,-31.25 -31.74,-43.26 9.13,0.2 24.29,6 35.99,6 8.9,0 38.99,4.05 38.99,-11 0,-8.34 -5.61,-10.39 -12.07,-13.91 -10.67,-5.8 -20.81,-11.95 -30.5,-19.52 -2.5,-1.96 -4.98,-3.8 -7.17,-5.84 -18.07,-16.83 -26.66,-25.23 -41.17,-45.81 -2.01,-2.85 -3.37,-5.39 -5.07,-7.95 -1.81,-2.72 -2.86,-4.36 -4.49,-8 12.4,2.33 60.48,19.73 60.48,-2 0,-9.13 -9.34,-13.85 -20.25,-24.76 -14.46,-14.48 -26.22,-29.59 -36.93,-47.08l-14.81 -27.2c3.94,0.92 6.04,2.7 9.77,4.22 9.53,3.91 21.07,8.79 31.23,8.79 4.86,0 9.99,-5.65 9.99,-11.01 0,-6.9 -12.42,-19.48 -16.72,-25.27 -6.05,-8.17 -11.38,-15.4 -17.07,-23.94 -10.93,-16.41 -21.39,-34.19 -30.53,-52.48 -13.65,-27.32 -27.23,-58.7 -35.66,-89.37 -1.26,-4.58 -2.97,-11.67 -4.64,-16.4 -1.7,-4.82 -5.75,-8.6 -11.36,-8.6 -12.24,0 -12.77,17.53 -15.61,26.38 -3.37,10.5 -6.7,21.09 -10.32,30.73 -9.21,24.57 -19.92,47.64 -32.04,70.94 -11.44,21.98 -25.76,42.94 -40.44,62.58 -3.88,5.2 -16.57,18.42 -16.57,24.43 0,5.76 3.73,12.01 10,12.01 6.67,0 15.78,-3.36 21.64,-5.36 5.83,-1.98 13.66,-6.69 19.07,-7.36 -14.09,27.05 -30.24,52.79 -51.96,74.49 -11.77,11.76 -19.74,13.87 -19.74,26.26 0,14.15 35.73,6.57 43.67,4.69 5.72,-1.35 11.05,-3.47 16.32,-4.69 -1.59,6.27 -15.73,24.97 -19.87,30.14 -7.14,8.95 -15.08,18.96 -24.13,25.87 -2.81,2.16 -4.14,3.97 -6.84,6.16 -11.64,9.4 -23.76,18.25 -37.15,24.85 -5.35,2.63 -12,4.83 -12,13.01 0,16.24 23.36,12 40,12 11.69,0 24.1,-4.91 34.99,-6.29 -1.45,6.22 -12.96,21.82 -17.56,27.73 -10.05,12.94 -20.97,23.48 -33.86,33.15 -4.86,3.65 -8.06,5.5 -13.19,8.82 -6.76,4.39 -25.37,9.58 -25.37,18.62 0,6.02 3.39,13 9.99,13 8.54,0 32.91,-15.7 38.99,-20.01 11.8,-8.34 21.31,-17.37 31.27,-27.73l13.45 -16.55c6.87,-9.23 30.27,-47.25 30.27,-57.75 0,-8.69 -7.87,-14.04 -16.55,-10.6 -3.88,1.53 -25.23,12.12 -20,0.21 3.16,-7.22 11.5,-15.09 16.82,-20.36 14.53,-14.38 25.23,-33.01 35.26,-50.77 2.68,-4.75 4.96,-8.86 7.05,-13.93 2,-4.85 5.42,-10.03 5.42,-15.58 0,-5.4 -4.19,-11.01 -10,-11.01 -8.53,0 -15.32,9.01 -24.99,9.01 -11.84,0 16.32,-35.83 23.34,-49.67 4.23,-8.34 21.65,-42.96 21.65,-51.37 0,-6.98 -3.63,-13 -12,-13 -6.1,0 -11.15,9.73 -20,10z"/>
  <path class="fil1" d="M1697.72 532.17c0,-5.93 4.74,-13.2 7.71,-16.3 3.53,-3.69 9.55,-7.71 16.28,-7.71l218.97 0c12.99,0 23.99,12.61 23.99,29.01l0 103.03c0,11.29 -12.06,25.01 -22.99,25.01l-219.97 0c-11.66,0 -23.99,-11.94 -23.99,-27.01l0 -106.03zm-673.89 -41.01c0,-9.65 18.22,-45.08 22.93,-56.11 5.08,-11.89 7.12,-15.76 15.79,-24.19 4.86,-4.72 18.14,-11.73 27.27,-11.73l140.97 0c11.56,0 27,13.9 27,30.01l0 64.02c0,11.56 -13.3,28.01 -30,28.01l-174.97 0c-15.97,0 -28.99,-13.77 -28.99,-30.01zm76.49 -122.11c-9.31,1.52 -7.13,-1.27 -26.11,3.46 -38.66,9.63 -103.99,48.48 -131.62,76.38 -9.81,9.9 -18.62,20.48 -21.37,37.64 -3.51,21.99 5.86,33.56 17.32,41.95 11.2,8.2 25.92,13.8 45.29,13.7l236.97 -0.01c12.59,-0.03 15.79,0.48 24.29,5.73 22.11,13.69 15.7,46.01 15.7,73.3l0 119.04c0,15.59 -2.57,46.82 2.54,57.49 7.57,15.79 24.19,13.15 46.45,12.95 54.75,-0.49 60.99,6.55 60.99,-27.43l0 -268.09c-0.04,-18.01 3.87,-31.75 21.85,-38.16 12.12,-4.32 115.86,-1.68 145.13,-1.86 10.72,-0.07 17.28,2.13 23.16,6.84 13.98,11.19 12.45,23.55 12.47,47.19 0.08,79.36 -0.06,158.7 0,238.07 0.02,20.56 -4.87,41.96 15.58,43.41 7.5,0.53 18.97,-0.41 27.77,-0.13 9.96,0.32 20,0.16 30,0.16 39.63,0 79.29,0 118.98,0 79.39,0 155.95,0 235.96,0 17.14,0 35.48,2.37 39.44,-19.99l-3.46 -292.52c-0.03,-13.11 1.44,-49.13 -0.73,-58.29 -4.88,-20.66 -21.28,-21.38 -37.29,-22.68 -8.71,-0.71 -17.56,-1.4 -26.39,-2.64l-80.59 -8.36c-36.23,-2.89 -72.19,-8.29 -107.93,-11.1 -34.25,-2.69 -72.6,-7.94 -107.92,-11.06 -17.14,-1.52 -35.94,-3.71 -53.27,-5.69 -61.03,-6.98 -103.19,-10.23 -167.77,-10.23 -98.99,0 -197.97,0 -296.95,0 -17.28,0 -42.7,-1.67 -58.49,0.93z"/>
  <path class="fil1" d="M889.85 698.22c0,-13.72 21.46,-28.45 34.77,-40.24l41.43 -32.54c28.77,-20.34 60.14,-50.26 97.77,-50.26l127.98 0c14.33,0 26,10.55 26,25.01l-6.11 69.96c-1.44,16.59 -1.08,46.69 -26.95,49.05 -14.99,1.36 -33.18,0.6 -48.93,0.6l-220.96 0c-8.15,0 -12.64,-0.93 -17.63,-4.95 -4.02,-3.24 -7.37,-9.97 -7.37,-16.63zm-50.99 23.01c-10.5,0 -10.62,-4.81 -13,-15.01 -6.23,-1.45 -11.05,0.77 -17.59,2.41 -26.05,6.5 -87.89,25.51 -110.39,37.6 -0.01,0.01 -3.63,2.38 -3.63,2.38 -1.98,2.29 -1.27,0.21 -1.37,4.63 13.12,3.06 31.5,-1.33 41.98,18.04 12.71,23.5 -12.51,47.09 -27.96,54 -11.62,5.19 -42.02,3.98 -56.01,3.98 -14.6,0 -22.99,-2.66 -22.99,10.01 0,18.92 37.99,-4.6 37.99,20 0,19.51 -37.99,2.76 -37.99,14.01l0 5c0,11.39 37.99,-5.95 37.99,14 0,17.27 -37.99,-0.73 -37.99,14.01 0,9.64 5.57,7 25.99,7 7.29,0 24,-2.41 24,9 0,11.48 -15.24,9.09 -32,10.01 0.26,11.72 21.59,12.44 29.95,12.31l66.89 0.09c21.99,0.8 17.03,-17.94 25.25,-41.3 4.23,-12.01 8.18,-18.97 15.47,-29.52 11.73,-16.96 31.21,-32.11 50.25,-39.77 30.66,-12.34 59.52,-8.85 92.15,-8.85 9.82,0 28.01,5.61 37.47,9.5 27.77,11.43 46.2,31.66 59.49,57.54 2.82,5.47 5.96,9.33 11.4,12.61 9.63,5.81 29.57,3.38 43.61,3.38l93.98 0c16.73,0 36,-3.72 36,12 0,14.75 -20.94,11.01 -35,11.01l-128.01 -0.04c-6.15,-0.09 -8.96,-0.95 -8.96,4.04 0,2.87 5.16,7.04 7.09,7.94 5.69,2.65 152.91,1.77 171.9,1.34 15.05,-0.34 23.97,-10.84 23.97,-22.29l0 -136.04c0,-9.1 -6.79,-16.58 -13.06,-18.94 -6.6,-2.49 -85.12,-1.07 -95.92,-1.07l-355.94 0c-7.02,0.02 -21.23,1.01 -21.6,-11.01 -0.39,-12.86 13.33,-12.02 19.6,-12l421.93 0.01c7.33,0 25.78,0.83 30.98,-1 6.96,-2.45 14.01,-10.03 14.01,-19.01l0 -145.05c0,-7.84 -6.55,-14 -14.99,-14l-172.98 0c-2.54,0 -6.44,0.78 -9.91,1.08 -3.44,0.28 -6.98,1.15 -10.1,1.91 -17.44,4.23 -31.62,12.67 -45.62,23.39l-39.93 29.06c-4.67,3.37 -8.41,6.72 -13.02,10 -9.4,6.69 -17.02,13.06 -26.11,19.87 -8.48,6.36 -45.51,33.26 -50.88,41.1 -8.74,12.78 -4.41,21.77 -8.29,26.74 -1.54,1.97 -4.73,3.9 -8.1,3.9z"/>
  <path class="fil1" d="M1406.77 545.17c0,-12.4 11.48,-24 23.99,-24l80.99 0c16.1,0 25.99,11.82 25.99,28l0 75.03c0,15.96 -9.98,28.01 -25.99,28.01l-78.99 0c-14.47,0 -25.99,-10.88 -25.99,-24.01l0 -83.03zm-13 -31.01l0 188.06c0,11.58 14.08,10.04 19,10 15.64,-0.1 19.99,1.8 19.99,13.01 0,4.43 -2.98,7.26 -6.23,8.8 -3.81,1.81 -8.5,1.24 -13.77,1.2 -5.8,-0.04 -18.99,-1.09 -18.99,11.01l0 147.04c0,8.77 7.03,16.01 15.99,16.01l125.98 0c8.34,0 15,-8.62 15,-17.01l0 -146.04c0,-3.83 -2.49,-7.53 -5.58,-9.37 -6.98,-4.17 -21.13,0.77 -27.96,-3.04 -3.17,-1.77 -6.26,-5.48 -6.33,-9.64 -0.31,-17.51 26.31,-9.51 33.65,-13.14 3.25,-1.6 6.22,-5.37 6.22,-9.83l0 -188.06c0,-5.5 -5.38,-11.85 -9.27,-13.73 -8.33,-4.02 -58.44,-2.27 -69.72,-2.27 -11.03,0 -60.56,-1.63 -68.72,2.26 -4.99,2.38 -9.26,7.65 -9.26,14.74z"/>
  <path class="fil2" d="M1696.72 118.04c0,21.39 1.59,38.12 15.26,56.74 1.44,1.96 2.38,3.24 3.99,5.02 8.48,9.39 14.11,15.01 26.53,21.45 41.52,21.53 92.51,3.26 112.88,-37.51 26.21,-52.46 -9.75,-120.25 -73.68,-120.81 -15.15,-0.13 -22.93,1.75 -33.86,6.21 -8.41,3.43 -17.66,9.59 -24.38,15.63 -12.98,11.69 -26.74,36.53 -26.74,53.27z"/>
  <path class="fil3" d="M1104.82 692.22c0,-5.45 6.19,-9.88 9.55,-12.48l16.69 -15.3c2.08,-1.97 3.26,-2.46 5.49,-4.48 3.72,-3.37 6.26,-7.75 13.26,-7.75 36.69,0 41.32,-4.29 38.86,21.87 -1.14,12.09 0.15,23.14 -9.87,23.14l-64.99 0c-4.05,0 -8.99,-1.08 -8.99,-5zm-180.97 0c0,-6.07 6.83,-9.54 13.68,-15.31 5.44,-4.58 9.91,-8.28 15.91,-13.07l48.98 -37.05c16.9,-11.67 37.28,-28.6 57.4,-28.6l127.98 0c3.37,0 7,1.77 7,5 0,5.62 -0.19,14.78 -2.04,19.96 -5.48,15.33 -38.69,-2.91 -62.54,12.45l-52.09 45.92c-1.59,1.34 -2.01,1.99 -3.67,3.36 -7.58,6.27 -21.73,12.34 -31.63,12.34 -33.45,0 -32.21,3.09 -41.29,-19.72 -2.95,-7.42 -5.59,-20.29 -14.7,-20.29 -16.54,0 -11,16.66 -11,21.01 0,5.22 -27,19 -38,19 -4.36,0 -13.99,0.85 -13.99,-5zm-34 6c0,6.66 3.35,13.39 7.37,16.63 4.99,4.02 9.48,4.95 17.63,4.95l220.96 0c15.75,0 33.94,0.76 48.93,-0.6 25.87,-2.36 25.51,-32.46 26.95,-49.05l6.11 -69.96c0,-14.46 -11.67,-25.01 -26,-25.01l-127.98 0c-37.63,0 -69,29.92 -97.77,50.26l-41.43 32.54c-13.31,11.79 -34.77,26.52 -34.77,40.24z"/>
  <path class="fil3" d="M1842.69 631.2l0 -89.03c0,-6.94 6.97,-12 14,-12l70.99 0c6.95,0 14,5.45 14,12l0 97.03c0,3.08 -2.93,4 -6,4l-77.99 0c-7.56,0 -15,-4.7 -15,-12zm-76.98 9c0.13,-6.12 4.08,-9.31 8.52,-15.49 3.33,-4.63 19.34,-25.48 20.44,-28.61 2.31,-6.57 -4.07,-13.3 -11.04,-10.04 -6.71,3.13 -34.95,50.68 -43.92,55.16 -5.85,2.92 -13.09,1.4 -16.65,-3.37 -3.6,-4.81 -2.35,-14.82 -2.35,-22.65l0 -73.03c1.34,-16.03 22.74,-12 38,-12 4.01,0 8.05,-0.07 12.05,-0.06 6.13,0.01 6.44,0.71 9.94,3.06 -0.4,5.71 -4.72,9.71 -7.91,14.06 -3.22,4.39 -17.82,22.76 -17.93,26.96 -0.16,6.39 7.31,11.01 13.34,6.49l19.24 -25.77c9.44,-12.65 19.08,-31.77 29.4,-21.88 4.78,4.59 2.86,22.33 2.86,31.15 0,15 0,30.01 0,45.01 0,35.71 3.03,34.97 -45.06,34.08 -5.48,-0.1 -5.77,-0.94 -8.93,-3.07zm-67.99 -108.03l0 106.03c0,15.07 12.33,27.01 23.99,27.01l219.97 0c10.93,0 22.99,-13.72 22.99,-25.01l0 -103.03c0,-16.4 -11,-29.01 -23.99,-29.01l-218.97 0c-6.73,0 -12.75,4.02 -16.28,7.71 -2.97,3.1 -7.71,10.37 -7.71,16.3z"/>
  <path class="fil1" d="M1573.38 854.27c0,10.65 -2.19,47.51 3.6,54.78 3.31,4.17 8.67,8.24 15.75,8.24l51 0c21.36,0 15.05,-23.04 30.57,-45.44 10.16,-14.67 32.21,-27.58 49.41,-27.58l129.98 0c33.68,0 57.44,20.72 66.35,52.65 1.74,6.26 1.95,10.05 5.83,14.18 3.07,3.26 7.79,6.19 13.81,6.19l76.98 0c18.33,0 32.86,-23.28 17.38,-28.38 -6.35,-2.09 -24.85,0.72 -30.94,-1.05 -8.04,-2.34 -14.9,-22.09 7.56,-22.09 19.35,0 31,3.03 31,-11.5 0,-10.83 -10.54,-21 -22,-21l-429.93 0c-5.61,0 -9,2.07 -12.35,5.63 -4.31,4.56 -4,6.96 -4,15.37z"/>
  <path class="fil3" d="M1696.72 118.04c0,-16.74 13.76,-41.58 26.74,-53.27 6.72,-6.04 15.97,-12.2 24.38,-15.63 10.93,-4.46 18.71,-6.34 33.86,-6.21 63.93,0.56 99.89,68.35 73.68,120.81 -20.37,40.77 -71.36,59.04 -112.88,37.51 -12.42,-6.44 -18.05,-12.06 -26.53,-21.45 -1.61,-1.78 -2.55,-3.06 -3.99,-5.02 -13.67,-18.62 -15.26,-35.35 -15.26,-56.74zm41.99 -97.03c0,12.06 -13.74,21.55 -25.03,19.13 -9.02,-1.93 -9.22,-7.06 -15.1,-8.11 -7.67,-1.36 -13.86,3.33 -13.86,10.98 0,9.8 9,6.01 9,24.01 0,6.07 -8.05,19.01 -19,19.01 -8.01,0 -11.24,-3.19 -16.84,2.16 -3.65,3.48 -4.79,9.78 -1.82,14.47 6.28,9.91 20.66,0.14 20.66,27.38 0,7.15 -4.56,12.47 -9.02,14.98 -7.8,4.4 -12.98,3.03 -12.98,14.03 0,12.97 15.88,9 22,9 9.15,0 18,12.21 18,22.01 0,10.19 -9,11.94 -9,21.01 0,7.22 4.87,11 12,11 8,0 7.05,-9 21.99,-9 8.4,0 20,9.04 20,18 0,11.21 -2.27,14.84 3.77,19.24 4.53,3.29 9.76,3.14 14.02,-0.45 8.82,-7.43 0.63,-19.79 26.2,-19.79 20.09,0 11.93,22.01 29,22.01 14.42,0 8.13,-18.79 9.6,-24.41 2.37,-9.03 13.17,-15.6 22.39,-15.6 9.98,0 10.06,9 21,9 5.92,0 10,-4.91 10,-12 0,-8.07 -9,-8.01 -9,-21.01 0,-9.42 8.26,-21.01 20,-21.01 5.71,0 8.9,1.99 13.57,-0.4 3.06,-1.56 6.42,-5.75 6.42,-9.6 0,-17.56 -22.99,-3.81 -22.99,-34.01 0,-6.76 5.13,-12.66 8.99,-15.01 8.74,-5.29 13,-2.3 13,-15 0,-12.72 -17.48,-8 -20.99,-8 -7.74,0 -15.88,-9.09 -17.95,-17.11 -3.89,-15.09 7.95,-14.54 7.95,-26.91 0,-7.89 -5.58,-10 -12,-10 -8.4,0 -13.96,17.77 -34.57,3.58 -12.1,-8.33 -4.87,-20.41 -7.04,-26.93 -1.18,-3.55 -5.45,-7.66 -9.38,-7.66 -9.95,0 -10.45,5.62 -13.63,12.37 -6.73,14.32 -27.76,13.03 -34.56,3.83 -4.07,-5.5 -3.7,-15.69 -14.74,-15.65 -3.98,0.01 -5.11,0.75 -7.46,3.05 -5.88,5.78 -2.6,8.95 -2.6,17.41z"/>
  <path class="fil3" d="M1089.82 498.65c-27.92,0 -48.6,4.85 -38.78,-18.31 2.28,-5.39 4.03,-9.56 6.44,-14.53 10.13,-20.9 14.18,-44.68 38.34,-44.68 19.52,0 40.99,-3.94 40.99,15.01l0 48.01c0,5.42 -2,9.18 -5.33,11.68 -6.19,4.64 -33.05,2.82 -41.66,2.82zm68.99 -63.51c0,-4.16 2.62,-8.69 5.24,-10.75 7.09,-5.58 41.43,-3.26 54.75,-3.26 11.99,0 16.57,5.93 16.57,18.01 0,50.63 5.79,60.16 -22.57,59.51 -10.55,-0.24 -42.82,2.29 -49.2,-3.29 -3.27,-2.86 -4.79,-7.3 -4.79,-13.21l0 -47.01zm-134.98 56.02c0,16.24 13.02,30.01 28.99,30.01l174.97 0c16.7,0 30,-16.45 30,-28.01l0 -64.02c0,-16.11 -15.44,-30.01 -27,-30.01l-140.97 0c-9.13,0 -22.41,7.01 -27.27,11.73 -8.67,8.43 -10.71,12.3 -15.79,24.19 -4.71,11.03 -22.93,46.46 -22.93,56.11z"/>
  <path class="fil2" d="M923.85 692.22c0,5.85 9.63,5 13.99,5 11,0 38,-13.78 38,-19 0,-4.35 -5.54,-21.01 11,-21.01 9.11,0 11.75,12.87 14.7,20.29 9.08,22.81 7.84,19.72 41.29,19.72 9.9,0 24.05,-6.07 31.63,-12.34 1.66,-1.37 2.08,-2.02 3.67,-3.36l52.09 -45.92c23.85,-15.36 57.06,2.88 62.54,-12.45 1.85,-5.18 2.04,-14.34 2.04,-19.96 0,-3.23 -3.63,-5 -7,-5l-127.98 0c-20.12,0 -40.5,16.93 -57.4,28.6l-48.98 37.05c-6,4.79 -10.47,8.49 -15.91,13.07 -6.85,5.77 -13.68,9.24 -13.68,15.31z"/>
  <path class="fil2" d="M1842.69 631.2c0,7.3 7.44,12 15,12l77.99 0c3.07,0 6,-0.92 6,-4l0 -97.03c0,-6.55 -7.05,-12 -14,-12l-70.99 0c-7.03,0 -14,5.06 -14,12l0 89.03z"/>
  <path class="fil3" d="M1429.76 555.18c0,-6.46 4.66,-11.01 11,-11.01l63.99 0c5.32,0 10,5.9 10,11.01l0 63.02c0,5.84 -5.16,11 -11,11l-61.99 0c-7.02,0 -12,-3.9 -12,-11l0 -63.02zm-22.99 -10.01l0 83.03c0,13.13 11.52,24.01 25.99,24.01l78.99 0c16.01,0 25.99,-12.05 25.99,-28.01l0 -75.03c0,-16.18 -9.89,-28 -25.99,-28l-80.99 0c-12.51,0 -23.99,11.6 -23.99,24z"/>
  <path class="fil2" d="M1765.71 640.2c3.16,2.13 3.45,2.97 8.93,3.07 48.09,0.89 45.06,1.63 45.06,-34.08 0,-15 0,-30.01 0,-45.01 0,-8.82 1.92,-26.56 -2.86,-31.15 -10.32,-9.89 -19.96,9.23 -29.4,21.88l-19.24 25.77c-6.03,4.52 -13.5,-0.1 -13.34,-6.49 0.11,-4.2 14.71,-22.57 17.93,-26.96 3.19,-4.35 7.51,-8.35 7.91,-14.06 -3.5,-2.35 -3.81,-3.05 -9.94,-3.06 -4,-0.01 -8.04,0.06 -12.05,0.06 -15.26,0 -36.66,-4.03 -38,12l0 73.03c0,7.83 -1.25,17.84 2.35,22.65 3.56,4.77 10.8,6.29 16.65,3.37 8.97,-4.48 37.21,-52.03 43.92,-55.16 6.97,-3.26 13.35,3.47 11.04,10.04 -1.1,3.13 -17.11,23.98 -20.44,28.61 -4.44,6.18 -8.39,9.37 -8.52,15.49z"/>
  <path class="fil1" d="M1260.79 855.27l0 41.02c0,5.29 3.87,11.48 6.7,14.3 3.32,3.32 8.93,6.7 15.3,6.7l68.98 0c9.4,0 19,-8.39 19,-18l0 -52.02c0,-7.37 -8.18,-14 -16,-14l-72.98 0c-10.01,0 -21,11.8 -21,22z"/>
  <path class="fil2" d="M1429.76 555.18l0 63.02c0,7.1 4.98,11 12,11l61.99 0c5.84,0 11,-5.16 11,-11l0 -63.02c0,-5.11 -4.68,-11.01 -10,-11.01l-63.99 0c-6.34,0 -11,4.55 -11,11.01z"/>
  <path class="fil2" d="M1158.81 435.14l0 47.01c0,5.91 1.52,10.35 4.79,13.21 6.38,5.58 38.65,3.05 49.2,3.29 28.36,0.65 22.57,-8.88 22.57,-59.51 0,-12.08 -4.58,-18.01 -16.57,-18.01 -13.32,0 -47.66,-2.32 -54.75,3.26 -2.62,2.06 -5.24,6.59 -5.24,10.75z"/>
  <path class="fil2" d="M1089.82 498.65c8.61,0 35.47,1.82 41.66,-2.82 3.33,-2.5 5.33,-6.26 5.33,-11.68l0 -48.01c0,-18.95 -21.47,-15.01 -40.99,-15.01 -24.16,0 -28.21,23.78 -38.34,44.68 -2.41,4.97 -4.16,9.14 -6.44,14.53 -9.82,23.16 10.86,18.31 38.78,18.31z"/>
  <path class="fil1" d="M858.86 910.29c0,10.64 4.47,20.31 9.74,26.26 22.93,25.88 68.24,10.74 68.24,-26.26 0,-19.98 -17.08,-38.01 -40.99,-38.01 -19.51,0 -36.99,18.24 -36.99,38.01z"/>
  <path class="fil1" d="M1752.71 911.29c0,10.57 4.73,19.85 10.23,25.78 2.97,3.2 5.39,5.32 9.43,7.57 38.92,21.62 77.56,-29.87 47.59,-59.63 -12.08,-12 -17.67,-12.73 -33.26,-12.73 -6.05,0 -18.68,6.27 -23.71,12.28 -5.47,6.53 -10.28,15.11 -10.28,26.73z"/>
  <path class="fil3" d="M690.88 279.09c-16.45,0 -16.65,-5 -28.02,-5.96 -16.52,-1.4 -36.89,1.5 -49.15,10.76 -10.93,8.26 -0.02,17.21 3.19,17.21 5.13,0 32.16,-16.61 59.86,4.12 6.44,4.82 12.25,14.88 21.12,14.88 20.61,0 7.4,-28.31 37.63,-43.38 16.09,-8.01 28.1,-3.09 33.2,-7.8 5,-4.6 6.49,-16.84 -17.84,-16.84 -14.98,0 -31.05,5.1 -40.71,13.28 -2.25,1.91 -3.26,3.38 -5.66,5.39 -3.4,2.85 -8.47,8.34 -13.62,8.34z"/>
  <path class="fil3" d="M1013.83 73.02l-10.57 -2.46c-19.01,-8.29 -34.39,-13.02 -57.48,-4.61 -6.84,2.49 -10.94,3.71 -10.94,11.07 0,14.34 16.14,6.01 30,6.01 14.56,0 30.14,10.23 37.96,22.05 2.65,4 5.6,7.96 12.03,7.96 15.92,0 10.71,-16 34.12,-28.88 6.64,-3.65 16.36,-6.72 24.86,-7.14 4.35,-0.22 11.99,0.58 15.81,-0.19 8.56,-1.72 10.66,-15.05 -0.83,-17.83 -21.96,-5.31 -43.44,-0.79 -62.25,9.73 -3.86,2.16 -7.15,4.29 -12.71,4.29z"/>
  <path class="fil2" d="M1104.82 692.22c0,3.92 4.94,5 8.99,5l64.99 0c10.02,0 8.73,-11.05 9.87,-23.14 2.46,-26.16 -2.17,-21.87 -38.86,-21.87 -7,0 -9.54,4.38 -13.26,7.75 -2.23,2.02 -3.41,2.51 -5.49,4.48l-16.69 15.3c-3.36,2.6 -9.55,7.03 -9.55,12.48z"/>
  <path class="fil1" d="M675.89 802.26c0,5.31 7.98,4 13.99,4 13.15,0 26,-16.82 26,-20.01 0,-10.56 -11.86,-9 -19,-9 -9.85,0 -20.99,23.76 -20.99,25.01z"/>
  <path class="fil1" d="M633.89 803.26c0,4.26 3.84,3 13,3 7.76,0 13.69,-13.42 17.82,-22.34 2.28,-4.95 0.88,-6.15 -4.61,-6.97 -9.78,-1.47 -12.5,2.49 -16.94,8.56 -2.48,3.38 -9.27,12.81 -9.27,17.75z"/>
 </g>
</svg>
